<?xml version="1.0" encoding="UTF-8"?>
<!DOCTYPE svg PUBLIC "-//W3C//DTD SVG 1.1//EN" "http://www.w3.org/Graphics/SVG/1.1/DTD/svg11.dtd">
<!-- Creator: CorelDRAW Standard 2020 -->
<svg xmlns="http://www.w3.org/2000/svg" xml:space="preserve" width="40mm" height="40mm" version="1.1" style="shape-rendering:geometricPrecision; text-rendering:geometricPrecision; image-rendering:optimizeQuality; fill-rule:evenodd; clip-rule:evenodd"
viewBox="0 0 4000 4000"
 xmlns:xlink="http://www.w3.org/1999/xlink"
 xmlns:xodm="http://www.corel.com/coreldraw/odm/2003">
 <defs>
  <style type="text/css">
   <![CDATA[
    .fil0 {fill:#EF1111;fill-rule:nonzero}
   ]]>
  </style>
 </defs>
 <g id="Слой_x0020_1">
  <metadata id="CorelCorpID_0Corel-Layer"/>
  <path class="fil0" d="M201.99 778.12l3332 0 266 798 -322 84c0,0 -84,-350 -476,-434 -154,0 -602,0 -602,0l0 616 196 0c0,0 182,-56 182,-154 0,-98 0,-224 0,-224l322 0 0 1106 -308 0 -28 -252c0,0 -56,-126 -168,-126 -126,0 -210,0 -210,0l0 574c0,0 14,140 126,140 112,0 196,0 196,0l0 350 -2506 0 0 -350 182 0c0,0 140,-14 140,-140 0,-126 0,-1498 0,-1498 0,0 0,-126 -126,-126 -126,0 -196,0 -196,0l0 -364z"/>
 </g>
</svg>
