<?xml version="1.0" encoding="utf-8"?>
<!-- Generator: Adobe Illustrator 23.0.3, SVG Export Plug-In . SVG Version: 6.00 Build 0)  -->
<svg version="1.1" id="Слой_1" xmlns="http://www.w3.org/2000/svg" xmlns:xlink="http://www.w3.org/1999/xlink" x="0px" y="0px"
	 viewBox="0 0 75 75" style="enable-background:new 0 0 75 75;" xml:space="preserve">
<style type="text/css">
	.st0{fill:#FFFFFF;stroke:#EF7F1A;stroke-linecap:round;stroke-linejoin:round;}
	.st1{fill:#FFFFFF;stroke:#EF7F1A;stroke-width:2;stroke-linecap:round;stroke-linejoin:round;}
	.st2{fill:none;stroke:#EF7F1A;stroke-linecap:round;stroke-linejoin:round;}
	.st3{fill:#EF7F1A;}
	.st4{fill:#FFFFFF;stroke:#F07F1A;stroke-linecap:round;stroke-linejoin:round;stroke-miterlimit:10;}
	.st5{fill:#FFFFFF;stroke:#F07F1A;stroke-width:2;stroke-linecap:round;stroke-linejoin:round;stroke-miterlimit:10;}
	.st6{fill:none;stroke:#F07F1A;stroke-linecap:round;stroke-linejoin:round;stroke-miterlimit:10;}
</style>
<g>
	<g>
		<path class="st0" d="M33.2,61.8h23.7c1.5,0,2.8,0.9,2.8,2v1.7H30.5v-1.7C30.5,62.7,31.7,61.8,33.2,61.8z"/>
		<path class="st1" d="M33.7,62c0,0,1.3-9.9,11.3-9.9S56.2,62,56.2,62H33.7z"/>
		<line class="st2" x1="39.9" y1="58.1" x2="36.6" y2="48.4"/>
		<line class="st2" x1="43.2" y1="54.8" x2="41.8" y2="48.5"/>
		<line class="st2" x1="46.4" y1="58.1" x2="46.4" y2="46.1"/>
		<line class="st2" x1="49.7" y1="56.4" x2="52.7" y2="49"/>
		<circle class="st3" cx="36.4" cy="47.8" r="1.6"/>
		<circle class="st3" cx="41.6" cy="47.9" r="1.6"/>
		<circle class="st3" cx="46.4" cy="45.5" r="1.6"/>
		<circle class="st3" cx="53.1" cy="48.2" r="1.6"/>
	</g>
	<g>
		<path class="st4" d="M23.5,51.6l-11.8,9.9l0.6-2.9c0.2-0.7,0.5-1.3,1-1.8l14.3-14.5"/>
		<polyline class="st4" points="30.7,39.1 33.3,36.5 33.4,43.3 30.1,46 		"/>
		<path class="st4" d="M17.8,66.3l0.9-3.9c0.1-0.6,0.4-1.3,0.6-1.9l8-17.2c0.2-0.5,0.3-1,0.2-1.5l-0.8-5.7l2.9-0.6l1.8,6.6
			c0.1,0.5,0.1,1.1-0.2,1.6l-7.9,15.2c-0.3,0.6-0.6,1.1-1,1.6L17.8,66.3z"/>
		<path class="st5" d="M33.7,36l8.7-12.9c1.4-2,4.1-2.6,6.2-1.3l0.1,0c2.1,1.4,2.7,4.3,1.3,6.4l-8.2,11.9c-0.7,1-1.8,1.5-3,1.4
			l-0.2,0c-1.1-0.1-2.2,0.2-3.1,0.8l-1.5,0.9L33.7,36z"/>
		<path class="st6" d="M38.9,36.9l-0.4-0.3c-0.5-0.3-0.6-0.9-0.3-1.4l6.1-9c0.3-0.5,0.9-0.6,1.4-0.3l0.4,0.3
			c0.5,0.3,0.6,0.9,0.3,1.4l-6.1,9C39.9,37.1,39.3,37.2,38.9,36.9z"/>
		<path class="st5" d="M26.4,36l-3.2-7.4c-0.3-0.8-0.6-1.6-0.7-2.4l-0.2-1.2c-0.5-2.9,1.5-5.5,4.4-6l0,0c2.8-0.4,5.5,1.5,5.9,4.3v0
			c0.1,0.5,0.1,1.1-0.1,1.6l-0.9,2.6c-0.6,1.8-1,3.7-1.3,5.6L30,35.2L26.4,36z"/>
		<circle class="st6" cx="27.3" cy="24.4" r="2.3"/>
	</g>
</g>
</svg>
