<?xml version="1.0" encoding="UTF-8"?>
<!DOCTYPE svg PUBLIC "-//W3C//DTD SVG 1.1//EN" "http://www.w3.org/Graphics/SVG/1.1/DTD/svg11.dtd">
<!-- Creator: CorelDRAW -->
<svg xmlns="http://www.w3.org/2000/svg" xml:space="preserve" width="140" height="75" version="1.1" style="shape-rendering:geometricPrecision; text-rendering:geometricPrecision; image-rendering:optimizeQuality; fill-rule:evenodd; clip-rule:evenodd"
viewBox="0 0 5600 3000"
 xmlns:xlink="http://www.w3.org/1999/xlink"
 xmlns:xodm="http://www.corel.com/coreldraw/odm/2003">
 <defs>
  <style type="text/css">
   <![CDATA[
    .str0 {stroke:#E20012;stroke-width:47.63;stroke-linejoin:round;stroke-miterlimit:22.9256}
    .fil0 {fill:none}
   ]]>
  </style>
 </defs>
 <g id="Слой_x0020_1">
  <metadata id="CorelCorpID_0Corel-Layer"/>
  <g id="_1604634285664">
   <path class="fil0 str0" d="M1978.65 1798.46l58.2 0 0 18.52 42.34 0 0 -87.31 -42.34 -0.01 0 18.52 -58.2 0.01 0 -116.42 161.39 0c52.92,0 100.54,-31.75 119.06,-79.38l92.6 -238.13c21.17,-50.27 68.79,-82.02 119.06,-82.02l764.66 0.01c92.6,0 169.33,76.73 169.33,171.98l0 685.27c0,47.63 -39.69,82.02 -87.31,82.02l-1262.06 0 0 -37.04c0,-7.94 -7.94,-13.23 -18.52,-13.23l-60.86 0 0 -325.44 2.65 2.65z"/>
   <polygon class="fil0 str0" points="2039.5,1391 1983.94,1391 1983.94,475.54 2089.77,475.54 2089.77,1134.35 "/>
   <path class="fil0 str0" d="M1510.33 475.54c26.46,-68.79 92.6,-116.42 169.33,-116.42 76.73,0 145.52,47.63 169.33,116.42"/>
   <polygon class="fil0 str0" points="3640.23,1004.71 4219.67,1004.71 4219.67,732.19 3640.23,732.19 "/>
   <polygon class="fil0 str0" points="3537.05,1425.39 3669.34,1425.39 3669.34,1293.1 3537.05,1293.1 "/>
   <polygon class="fil0 str0" points="3761.94,1425.39 3894.23,1425.39 3894.23,1293.1 3761.94,1293.1 "/>
   <polygon class="fil0 str0" points="3986.84,1425.39 4119.13,1425.39 4119.13,1293.1 3986.84,1293.1 "/>
   <polygon class="fil0 str0" points="4211.74,1425.39 4344.03,1425.39 4344.03,1293.1 4211.74,1293.1 "/>
   <polygon class="fil0 str0" points="3537.05,1655.58 3669.34,1655.58 3669.34,1523.29 3537.05,1523.29 "/>
   <polygon class="fil0 str0" points="3761.94,1655.58 3894.23,1655.58 3894.23,1523.29 3761.94,1523.29 "/>
   <polygon class="fil0 str0" points="3986.84,1655.58 4119.13,1655.58 4119.13,1523.29 3986.84,1523.29 "/>
   <polygon class="fil0 str0" points="4211.74,1655.58 4344.03,1655.58 4344.03,1523.29 4211.74,1523.29 "/>
   <polygon class="fil0 str0" points="3537.05,1883.12 3669.34,1883.12 3669.34,1750.83 3537.05,1750.83 "/>
   <polygon class="fil0 str0" points="3761.94,1883.12 3894.23,1883.12 3894.23,1750.83 3761.94,1750.83 "/>
   <polygon class="fil0 str0" points="3986.84,1883.12 4119.13,1883.12 4119.13,1750.83 3986.84,1750.83 "/>
   <polygon class="fil0 str0" points="4211.74,1883.12 4344.03,1883.12 4344.03,1750.83 4211.74,1750.83 "/>
   <polygon class="fil0 str0" points="3537.05,2110.66 3669.34,2110.66 3669.34,1978.37 3537.05,1978.37 "/>
   <polygon class="fil0 str0" points="3761.94,2110.66 3894.23,2110.66 3894.23,1978.37 3761.94,1978.37 "/>
   <polygon class="fil0 str0" points="3986.84,2110.66 4119.13,2110.66 4119.13,1978.37 3986.84,1978.37 "/>
   <polygon class="fil0 str0" points="4211.74,2110.66 4344.03,2110.66 4344.03,1978.37 4211.74,1978.37 "/>
   <polygon class="fil0 str0" points="2412.57,925.32 2518.4,925.32 2518.4,819.49 2412.57,819.49 "/>
   <polygon class="fil0 str0" points="2597.78,925.32 2703.61,925.32 2703.61,819.49 2597.78,819.49 "/>
   <polygon class="fil0 str0" points="2780.34,925.32 2886.17,925.32 2886.17,819.49 2780.34,819.49 "/>
   <polygon class="fil0 str0" points="3031.69,925.32 3314.79,925.32 3314.79,819.49 3031.69,819.49 "/>
   <path class="fil0 str0" d="M5597.53 2904.41l-1163.55 0c26.46,-26.46 42.33,-58.21 42.33,-92.6l0 -1563.69 148.17 0c21.17,0 42.33,-21.17 42.33,-42.33l0 -441.85c0,-26.46 -21.17,-42.33 -42.33,-42.33l-148.17 -0.01 0 -111.13c0,-71.44 -58.21,-129.65 -129.65,-129.65l-47.62 0.01 0 -89.96 -111.12 0 0 47.63 39.68 0 0 42.33 -132.29 0 0 -140.23 -52.91 0 0 140.23 -1677.46 0 0 -50.27 -79.38 0 0 50.27 -886.35 0c-47.63,0 -87.31,39.69 -87.31,87.31l0 420.69c0,13.23 2.65,29.1 2.65,39.69l52.92 555.63c2.65,31.75 29.1,52.92 60.85,52.92l222.24 -0.01 0 58.21c0,10.58 7.94,18.52 13.23,18.52l137.59 0c7.94,0 13.23,-7.94 13.23,-13.23l0 -60.85 37.04 0 0 60.85c0,7.94 7.94,13.23 13.23,13.23l37.04 0 0 259.29 -42.34 0 0 71.44 42.34 0 0 82.02 -52.92 0c-10.58,0 -18.52,7.94 -18.52,13.23l0 37.04 -849.31 0c-39.69,0 -68.79,31.75 -60.85,71.44l0 420.69c82.02,66.15 111.13,119.06 134.94,238.13l-1057.73 -0.01"/>
   <path class="fil0 str0" d="M2224.71 1391c0,-23.38 -18.95,-42.33 -42.33,-42.33 -23.38,0 -42.33,18.95 -42.33,42.33 0,23.38 18.95,42.33 42.33,42.33 23.38,0 42.33,-18.95 42.33,-42.33z"/>
   <path class="fil0 str0" d="M2282.91 1226.96c0,-23.38 -18.95,-42.33 -42.33,-42.33 -23.38,0 -42.33,18.95 -42.33,42.33 0,23.38 18.95,42.33 42.33,42.33 23.38,0 42.33,-18.95 42.33,-42.33z"/>
   <line class="fil0 str0" x1="4476.31" y1="716.31" x2="4476.31" y2= "1248.12" />
  </g>
 </g>
</svg>
