<?xml version="1.0" encoding="UTF-8"?>
<!DOCTYPE svg PUBLIC "-//W3C//DTD SVG 1.1//EN" "http://www.w3.org/Graphics/SVG/1.1/DTD/svg11.dtd">
<svg xmlns="http://www.w3.org/2000/svg" xml:space="preserve" width="20mm" height="20mm" version="1.1" style="shape-rendering:geometricPrecision; text-rendering:geometricPrecision; image-rendering:optimizeQuality; fill-rule:evenodd; clip-rule:evenodd"
viewBox="0 0 1600 1600"
 xmlns:xlink="http://www.w3.org/1999/xlink">
 <defs>
  <style type="text/css">
   <![CDATA[
    .str3 {stroke:#EF7F1A;stroke-width:20}
    .str2 {stroke:#EF7F1A;stroke-width:25}
    .str4 {stroke:#EF7F1A;stroke-width:25;stroke-linecap:round}
    .str1 {stroke:#EF7F1A;stroke-width:60}
    .str0 {stroke:#EF7F1A;stroke-width:60;stroke-linecap:round}
    .fil0 {fill:none}
    .fil2 {fill:none;fill-rule:nonzero}
    .fil1 {fill:white}
   ]]>
  </style>
 </defs>
 <g id="Слой_x0020_1">
  <metadata id="CorelCorpID_0Corel-Layer"/>
  <line class="fil0 str0" x1="1388" y1="517" x2="1388" y2= "802" />
  <path class="fil1 str1" d="M1236 442c-361,-1 -504,-2 -865,0 -24,0 -40,23 -41,49 -2,78 -4,157 -5,235 -1,44 3,100 22,132 5,9 18,27 32,27 64,-1 129,-2 193,-2 17,0 42,-20 53,-37 14,-24 28,-49 42,-74 13,-23 45,-35 72,-35 85,-1 -48,-1 37,0 34,0 90,37 90,62 1,63 1,127 0,190 0,25 -60,69 -90,69 -219,0 -255,-2 -475,0 -28,0 -80,54 -80,98 1,34 -2,68 1,102 1,12 4,24 12,34 19,24 38,50 65,65 23,13 51,15 78,15 369,0 555,0 923,0 19,0 36,-25 36,-44 0,-70 2,-140 0,-211 0,-14 -5,-28 -8,-43 -7,-35 -22,-71 -22,-107 0,-151 1,-301 0,-452 0,-32 -41,-73 -70,-73z"/>
  <circle class="fil2 str2" cx="1006" cy="615" r="52"/>
  <line class="fil0 str3" x1="532" y1="450" x2="532" y2= "735" />
  <line class="fil0 str4" x1="481" y1="1006" x2="481" y2= "917" />
  <line class="fil0 str4" x1="497" y1="942" x2="497" y2= "885" />
  <line class="fil0 str4" x1="466" y1="942" x2="466" y2= "885" />
  <circle class="fil2 str2" cx="1158" cy="1031" r="52"/>
  <circle class="fil2 str2" cx="1158" cy="740" r="52"/>
  <circle class="fil2 str2" cx="1006" cy="881" r="52"/>
  <line class="fil0 str3" x1="675" y1="1076" x2="675" y2= "1361" />
  <line class="fil0 str4" x1="514" y1="1006" x2="514" y2= "917" />
  <line class="fil0 str4" x1="531" y1="942" x2="531" y2= "885" />
 </g>
</svg>
