<?xml version="1.0" encoding="UTF-8"?>
<!DOCTYPE svg PUBLIC "-//W3C//DTD SVG 1.1//EN" "http://www.w3.org/Graphics/SVG/1.1/DTD/svg11.dtd">
<svg xmlns="http://www.w3.org/2000/svg" xml:space="preserve" width="16mm" height="16mm" version="1.1" style="shape-rendering:geometricPrecision; text-rendering:geometricPrecision; image-rendering:optimizeQuality; fill-rule:evenodd; clip-rule:evenodd" viewBox="0 0 1600 1600" xmlns:xlink="http://www.w3.org/1999/xlink">
 <defs>
  <style type="text/css">
   <![CDATA[
    .str1 {stroke:#F07F1A;stroke-width:26.46;stroke-miterlimit:22.9256}
    .str0 {stroke:#F07F1A;stroke-width:52.92;stroke-miterlimit:22.9256}
    .fil0 {fill:none}
   ]]>
  </style>
 </defs>
 <g id="Слой_x0020_1">
   <g id="_2029263198480">
   <path class="fil0 str0" d="M127.53 1093.62l16.26 35.34 74.37 -21.35c11.2,20.17 24.04,39.39 38.4,57.47l-48.17 60.54 26.42 28.55 28.55 26.43 60.53 -48.18c18.07,14.34 37.29,27.18 57.47,38.39l-21.34 74.37 35.34 16.27 36.49 13.49 37.49 -67.68c22.18,6.34 44.85,10.84 67.79,13.48l8.74 76.88 38.88 1.5 38.87 -1.5 8.74 -76.87c22.91,-2.64 45.59,-7.15 67.79,-13.49l37.49 67.68 36.49 -13.49 35.34 -16.26 -21.35 -74.37c20.17,-11.2 39.39,-24.05 57.48,-38.4l60.54 48.18 28.55 -26.43 26.42 -28.55 -48.18 -60.53c14.34,-18.08 27.18,-37.3 38.4,-57.47l74.37 21.34 16.26 -35.34 13.49 -36.49 -67.68 -37.49c6.34,-22.19 10.85,-44.86 13.49,-67.79l76.88 -8.74 1.5 -38.88 -1.51 -38.87 -76.87 -8.74c-2.63,-22.92 -7.15,-45.59 -13.48,-67.78l67.68 -37.5 -13.5 -36.49 -16.26 -35.34 -74.37 21.35c-11.2,-20.17 -24.05,-39.39 -38.39,-57.47l48.18 -60.54 -26.43 -28.56 -28.56 -26.42 -60.53 48.18c-18.07,-14.35 -37.29,-27.19 -57.46,-38.4l21.34 -74.37 -35.35 -16.26 -36.49 -13.49 -37.49 67.67c-22.18,-6.33 -44.86,-10.84 -67.78,-13.48l-8.74 -76.87 -38.88 -1.51 -38.88 1.51 -8.73 76.87c-22.93,2.63 -45.6,7.15 -67.79,13.48l-37.49 -67.67 -36.5 13.49 -35.34 16.26 21.35 74.37c-20.17,11.2 -39.39,24.04 -57.47,38.39l-60.53 -48.17 -28.56 26.42 -26.43 28.55 48.18 60.54c-14.35,18.07 -27.19,37.29 -38.39,57.47l-74.36 -21.35 -16.28 35.35 -13.49 36.49 67.68 37.49c-6.34,22.18 -10.85,44.85 -13.48,67.78l-76.87 8.74 -1.51 38.88 1.5 38.88 76.87 8.74c2.63,22.91 7.15,45.59 13.49,67.78l-67.67 37.49 13.48 36.5z"/>
   <ellipse class="fil0 str1" cx="584.75" cy="904.23" rx="203.66" ry="205.96"/>
   <circle class="fil0 str1" transform="matrix(1.33185E-14 -0.502986 0.502986 1.33185E-14 270.01 904.233)" r="98.09"/>
   <circle class="fil0 str1" transform="matrix(1.33185E-14 -0.502986 0.502986 1.33185E-14 270.01 904.233)" r="98.09"/>
   <circle class="fil0 str1" cx="584.75" cy="589.49" r="49.34"/>
   <circle class="fil0 str1" transform="matrix(1.33242E-14 0.502986 -0.502986 1.33242E-14 899.487 904.233)" r="98.09"/>
   <circle class="fil0 str1" cx="584.75" cy="1218.97" r="49.34"/>
   <path class="fil0 str0" d="M993.87 382.16l64.53 -7.39c6.88,-12.74 15.15,-24.69 24.64,-35.67l-18.16 -63.24c19.21,-16.79 40.79,-30.72 64.06,-41.36l50.85 40.4c13.88,-4.14 28.18,-6.74 42.65,-7.79l31.88 -57.56c25.46,1.71 50.57,7.12 74.55,16.06l7.38 64.52c12.75,6.88 24.69,15.15 35.67,24.63l63.25 -18.14c16.79,19.21 30.72,40.78 41.35,64.06l-40.4 50.84c4.15,13.88 6.74,28.18 7.8,42.65l57.56 31.89c-1.71,25.45 -7.12,50.56 -16.06,74.54l-64.53 7.38c-6.87,12.75 -15.15,24.69 -24.63,35.67l18.15 63.25c-19.21,16.79 -40.79,30.72 -64.06,41.36l-50.85 -40.41c-13.88,4.15 -28.18,6.75 -42.65,7.8l-31.88 57.56c-25.46,-1.71 -50.57,-7.12 -74.54,-16.06l-7.39 -64.52c-12.74,-6.88 -24.69,-15.15 -35.67,-24.64l-63.25 18.15c-16.78,-19.21 -30.72,-40.78 -41.35,-64.06l40.4 -50.85c-4.15,-13.87 -6.74,-28.17 -7.8,-42.64l-57.55 -31.89c1.71,-25.45 7.11,-50.56 16.05,-74.54z"/>
   <circle class="fil0 str1" cx="1239.65" cy="471.38" r="132.9"/>
  </g>
 </g>
</svg>
