<?xml version="1.0" encoding="UTF-8"?>
<!DOCTYPE svg PUBLIC "-//W3C//DTD SVG 1.1//EN" "http://www.w3.org/Graphics/SVG/1.1/DTD/svg11.dtd">
<!-- Creator: CorelDRAW Home & Student 2014 -->
<svg xmlns="http://www.w3.org/2000/svg" xml:space="preserve" width="16mm" height="16mm" version="1.1" style="shape-rendering:geometricPrecision; text-rendering:geometricPrecision; image-rendering:optimizeQuality; fill-rule:evenodd; clip-rule:evenodd"
viewBox="0 0 1600 1600"
 xmlns:xlink="http://www.w3.org/1999/xlink">
 <defs>
  <style type="text/css">
   <![CDATA[
    .str0 {stroke:#EF7F1A;stroke-width:29.27}
    .fil1 {fill:none}
    .fil0 {fill:#EF7F1A;fill-rule:nonzero}
   ]]>
  </style>
 </defs>
 <g id="Слой_x0020_1">
  <metadata id="CorelCorpID_0Corel-Layer"/>
  <g id="_198039760">
   <g>
    <path class="fil0" d="M372 879l-29 0 0 0 0 -1 0 -1 0 -1 0 0 1 -1 0 -1 0 0 0 -1 1 -1 0 0 0 -1 1 -1 0 0 1 -1 0 0 1 -1 0 0 1 -1 0 0 1 0 1 -1 0 0 1 0 1 -1 0 0 1 0 1 0 0 0 1 0 1 0 1 -1 0 1 1 0 1 0 1 0 0 0 1 0 1 0 0 1 1 0 1 0 0 1 1 0 0 0 1 1 1 0 0 1 1 0 0 1 0 0 1 1 0 1 1 0 0 1 0 1 0 0 1 1 0 1 0 0 0 1 0 1 0 1 0 0zm-29 130l0 -130 29 0 0 130 -29 0zm0 0l29 0 0 1 0 1 0 1 0 0 0 1 0 1 -1 1 0 0 0 1 0 1 -1 0 0 1 -1 0 0 1 0 0 -1 1 0 0 -1 1 -1 0 0 1 -1 0 0 0 -1 1 -1 0 0 0 -1 1 -1 0 0 0 -1 0 -1 0 -1 0 0 0 -1 0 -1 0 -1 0 0 0 -1 0 -1 0 0 -1 -1 0 -1 0 0 -1 -1 0 -1 0 0 -1 -1 0 0 -1 -1 0 0 -1 -1 0 0 -1 -1 0 0 -1 0 0 -1 -1 0 -1 0 0 0 -1 -1 -1 0 -1 0 0 0 -1 0 -1 0 -1z"/>
   </g>
   <circle class="fil1 str0" cx="689" cy="587" r="57"/>
   <circle class="fil1 str0" cx="949" cy="587" r="57"/>
   <circle class="fil1 str0" cx="1204" cy="587" r="57"/>
   <g>
    <path class="fil0" d="M387 444l-29 0 0 -1 0 -1 0 0 0 -1 0 -1 0 -1 0 0 1 -1 0 -1 0 0 1 -1 0 0 1 -1 0 -1 0 0 1 -1 0 0 1 -1 0 0 1 0 1 -1 0 0 1 0 1 -1 0 0 1 0 1 0 0 -1 1 0 1 0 1 0 0 0 1 0 1 0 0 0 1 0 1 1 1 0 0 0 1 0 1 1 0 0 1 0 0 1 1 0 1 0 0 1 1 0 0 1 1 0 0 1 0 1 1 0 0 1 0 0 1 1 0 1 0 0 0 1 1 1 0 1 0 0 0 1 0 1zm-29 285l0 -285 29 0 0 285 -29 0zm0 0l29 0 0 1 0 1 0 0 0 1 -1 1 0 1 0 0 0 1 -1 1 0 0 0 1 -1 0 0 1 0 1 -1 0 0 1 -1 0 0 1 -1 0 -1 0 0 1 -1 0 0 0 -1 1 -1 0 0 0 -1 0 -1 1 -1 0 0 0 -1 0 -1 0 0 0 -1 0 -1 0 -1 0 0 -1 -1 0 -1 0 0 0 -1 -1 -1 0 0 0 -1 -1 -1 0 0 0 -1 -1 0 0 -1 -1 0 0 0 -1 -1 -1 0 0 -1 -1 0 0 0 -1 -1 -1 0 0 0 -1 0 -1 0 -1 0 0 0 -1 0 -1z"/>
   </g>
   <g>
    <path class="fil0" d="M388 879l-29 0 0 0 0 -1 0 -1 0 -1 0 0 1 -1 0 -1 0 0 0 -1 1 -1 0 0 0 -1 1 0 0 -1 1 -1 0 0 1 -1 0 0 1 0 0 -1 1 0 0 -1 1 0 1 0 0 0 1 -1 1 0 0 0 1 0 1 0 1 0 0 0 1 0 1 0 1 0 0 0 1 0 1 0 0 1 1 0 1 0 0 0 1 1 1 0 0 1 1 0 0 0 1 1 0 0 1 1 0 1 0 0 1 1 0 0 0 1 1 1 0 0 0 1 0 1 1 0 0 1 0 1 0 1 0 0zm-29 57l0 -57 29 0 0 57 -29 0zm0 0l29 0 0 0 0 1 0 1 0 0 -1 1 0 1 0 1 0 0 -1 1 0 1 0 0 -1 1 0 0 0 1 -1 0 0 1 -1 0 0 1 -1 0 0 1 -1 0 -1 0 0 1 -1 0 -1 0 0 1 -1 0 -1 0 0 0 -1 0 -1 0 -1 0 0 0 -1 0 -1 0 -1 0 0 0 -1 0 -1 -1 0 0 -1 0 -1 -1 0 0 -1 0 0 -1 -1 0 0 -1 -1 0 0 -1 -1 0 0 -1 -1 0 0 -1 0 0 -1 -1 0 -1 0 0 0 -1 -1 -1 0 -1 0 0 0 -1 0 -1 0 0z"/>
   </g>
   <g>
    <path class="fil0" d="M357 879l-29 0 0 0 0 -1 0 -1 0 -1 0 0 0 -1 1 -1 0 0 0 -1 0 -1 1 0 0 -1 1 0 0 -1 1 -1 0 0 0 -1 1 0 1 0 0 -1 1 0 0 -1 1 0 1 0 0 0 1 -1 1 0 0 0 1 0 1 0 1 0 0 0 1 0 1 0 0 0 1 0 1 0 1 0 0 1 1 0 1 0 0 0 1 1 0 0 1 1 0 0 1 0 1 1 0 0 0 1 1 1 0 0 1 1 0 0 0 1 1 1 0 0 0 1 0 1 0 0 1 1 0 1 0 1 0 0zm-29 57l0 -57 29 0 0 57 -29 0zm0 0l29 0 0 0 0 1 0 1 -1 0 0 1 0 1 0 1 0 0 -1 1 0 1 0 0 -1 1 0 0 -1 1 0 0 0 1 -1 0 -1 1 0 0 -1 1 0 0 -1 0 0 1 -1 0 -1 0 0 1 -1 0 -1 0 -1 0 0 0 -1 0 -1 0 0 0 -1 0 -1 0 -1 0 0 0 -1 0 -1 -1 0 0 -1 0 -1 -1 0 0 -1 0 0 -1 -1 0 -1 -1 0 0 0 -1 -1 0 0 -1 -1 0 0 -1 -1 0 0 -1 0 -1 0 0 -1 -1 0 -1 0 -1 0 0 0 -1 0 -1 0 0z"/>
   </g>
   <g>
    <path class="fil0" d="M112 1253l-2 -103 59 -1 2 103 -59 1 0 0zm0 0l0 0 0 0 0 0zm63 14l-45 38 0 0 -2 -1 -1 -2 -1 -1 -1 -2 -1 -1 -1 -2 -1 -1 -1 -2 -1 -2 -1 -1 -1 -2 -1 -2 -1 -2 -1 -2 0 -2 -1 -2 0 -1 -1 -3 0 -1 0 -2 0 -2 -1 -1 0 -2 0 -2 0 -1 0 -2 0 -1 0 -1 0 -2 0 -1 0 -2 0 -1 59 -1 0 1 0 2 0 1 0 1 0 2 0 1 0 0 0 1 0 1 0 0 0 1 0 0 0 0 0 0 0 0 0 0 0 0 0 0 0 0 0 -1 0 0 0 0 0 0 0 1 0 0 0 0 1 1 0 0 0 1 1 1 1 1 1 1 0 -1zm60 60l-35 47 -1 -1 -2 -2 -3 -2 -2 -2 -2 -2 -3 -2 -2 -2 -2 -2 -3 -2 -2 -2 -2 -2 -3 -2 -2 -2 -2 -2 -2 -2 -2 -2 -3 -2 -2 -3 -2 -2 -2 -2 -2 -2 -2 -2 -2 -2 -2 -2 -2 -3 -2 -2 -2 -2 -2 -2 -2 -3 -2 -2 -2 -2 -2 -2 -2 -3 45 -38 1 3 2 2 2 2 2 2 1 2 2 2 2 1 2 2 2 2 1 2 2 2 2 2 2 2 2 2 2 2 2 2 2 2 1 2 2 1 2 2 2 2 2 2 2 2 2 2 2 1 3 2 2 2 2 2 2 2 2 1 2 2 2 2 -1 -1zm-35 47l-1 -1 0 0 1 1zm96 -38l0 59 0 0 -4 0 -3 0 -3 0 -3 0 -3 0 -3 0 -4 0 -3 -1 -3 0 -3 0 -3 0 -3 0 -3 -1 -3 0 -3 -1 -3 0 -3 -1 -3 0 -3 -1 -3 0 -3 -1 -3 -1 -3 -1 -3 -1 -3 -1 -3 -1 -3 -2 -2 -1 -3 -2 -3 -1 -3 -2 -2 -2 35 -47 1 1 1 0 1 1 0 0 1 1 1 0 1 1 1 0 2 0 1 1 2 0 1 1 2 0 1 0 2 1 2 0 2 0 2 1 2 0 3 0 2 0 2 1 3 0 2 0 3 0 2 0 3 0 3 0 3 0 3 0 2 0 4 0 0 0zm0 0l0 0 0 0 0 0zm1106 59l-1106 0 0 -59 1106 0 1 59 -1 0zm1 0l-1 0 0 0 1 0zm6 -73l58 0 0 0 0 3 0 4 0 3 0 3 0 3 -1 4 0 3 -1 3 -1 3 0 4 -2 3 -1 3 -1 3 -2 4 -2 3 -2 3 -3 3 -3 2 -2 3 -4 2 -3 2 -3 2 -3 1 -4 1 -3 2 -3 0 -4 1 -3 1 -3 0 -3 1 -4 0 -3 0 -2 -59 2 0 2 0 1 0 1 0 1 0 1 -1 1 0 0 0 0 0 0 0 0 0 -1 1 0 0 0 0 -1 1 0 0 0 0 -1 1 0 0 0 0 0 0 0 -1 1 0 0 -1 0 -1 0 -1 0 -1 0 -2 0 -2 1 -2 0 -2 0 -2 0 -1zm0 1l0 0 0 -1 0 1zm58 -210l0 209 -58 0 0 -209 58 -3 0 3zm0 -3l0 2 0 1 0 -3zm-62 -26l50 -31 0 -1 1 3 1 2 1 2 2 3 1 2 0 2 1 3 1 2 0 2 1 2 0 2 1 3 0 2 0 1 1 2 0 2 0 2 0 2 0 2 0 1 0 2 0 1 0 2 1 1 0 2 0 1 0 1 0 2 0 1 0 1 0 1 0 1 -58 7 0 -2 -1 -2 0 -2 0 -2 0 -1 0 -2 0 -2 0 -1 0 -2 0 -1 0 -1 0 -2 0 -1 -1 -1 0 -1 0 -1 0 -1 0 -1 0 -1 0 -1 0 -1 0 0 -1 -1 0 0 0 -1 0 0 0 0 0 -1 0 0 0 0 0 0 -1 -1 0 0zm0 0l0 0 0 0 0 0zm-26 -123l58 0 0 1 0 4 0 3 0 4 0 3 0 4 0 3 0 3 1 3 0 4 0 3 0 3 1 3 0 3 0 3 1 3 0 3 1 3 1 2 0 3 1 3 1 2 1 3 0 2 1 3 1 2 1 3 1 2 1 2 1 3 1 2 2 2 1 2 -50 31 -2 -4 -2 -3 -2 -4 -2 -3 -1 -4 -2 -3 -1 -4 -2 -4 -1 -3 -1 -4 -2 -4 -1 -4 -1 -4 -1 -3 0 -4 -1 -4 -1 -4 -1 -4 0 -4 -1 -4 0 -4 -1 -4 0 -4 0 -4 0 -4 0 -4 -1 -4 0 -4 0 -4 0 -4 0 -5 1 -4 0 1zm58 0l0 1 0 0 0 -1zm0 -452l0 452 -58 0 0 -452 0 0 58 0zm-58 0l0 0 0 0 0 0zm-41 -44l0 -58 -1 0 9 0 8 0 8 1 7 1 7 1 7 2 7 2 6 3 6 3 5 3 5 4 5 4 4 5 4 5 3 5 2 5 3 5 1 4 2 5 1 5 0 5 1 4 0 4 0 4 0 4 0 3 0 4 0 3 0 3 -1 2 0 2 0 2 -58 -1 0 -3 0 -3 0 -3 0 -2 0 -3 0 -2 0 -3 0 -2 0 -2 0 -2 0 -2 0 -2 -1 -1 0 -1 0 -2 -1 0 0 -1 0 -1 -1 -1 -1 0 0 -1 -1 0 -1 -1 -2 -1 -2 -1 -3 -1 -3 -1 -3 0 -5 -1 -5 0 -5 -1 -6 0 -1 0zm1 0l-1 0 0 0 1 0zm-1083 -58l1082 0 0 58 -1082 1 -2 -59 2 0zm-2 0l1 0 1 0 -2 0zm-12 84l-57 -12 0 -2 1 -2 0 -2 1 -2 1 -2 1 -3 0 -2 1 -3 1 -2 1 -3 1 -2 2 -3 1 -3 1 -2 2 -3 2 -3 1 -3 2 -2 2 -3 3 -3 2 -2 3 -3 2 -2 3 -2 4 -3 3 -2 4 -2 3 -1 4 -2 4 -1 5 -1 4 0 4 -1 3 59 -1 0 0 0 0 0 -1 0 0 0 0 0 0 0 0 0 -1 1 0 0 -1 0 0 1 0 0 -1 1 -1 1 0 0 -1 1 0 1 -1 2 -1 1 0 1 -1 1 -1 2 0 1 -1 2 0 1 -1 2 0 1 -1 2 0 1 -1 2 0 2 0 -2zm-57 -12l0 -1 0 -1 0 2zm52 236l-58 9 0 0 -2 -7 -1 -8 -1 -7 -1 -8 -1 -8 0 -7 -1 -8 -1 -7 0 -8 0 -8 -1 -7 0 -8 0 -8 0 -7 0 -8 0 -8 0 -7 1 -8 0 -8 1 -8 0 -7 1 -8 1 -8 1 -7 1 -8 1 -8 1 -7 1 -8 1 -8 2 -8 1 -7 2 -8 57 12 -1 7 -1 7 -2 7 -1 7 -1 7 -1 7 -1 8 -1 7 -1 7 -1 7 0 7 -1 7 0 7 -1 7 0 7 0 7 0 7 0 7 0 7 0 7 0 7 0 7 1 7 0 7 1 6 0 7 1 7 1 7 0 7 1 7 1 7 2 7 0 0zm-36 141l-22 -132 58 -9 22 131 -58 12 0 -2zm0 2l0 -1 0 -1 0 2zm60 -8l1 59 0 0 -3 0 -3 -1 -3 0 -3 0 -3 -1 -2 0 -3 -1 -3 -1 -3 -1 -2 -1 -3 -2 -2 -1 -3 -2 -2 -1 -2 -2 -2 -2 -2 -2 -2 -2 -2 -2 -1 -2 -2 -3 -1 -2 -2 -2 -1 -2 -1 -3 -1 -2 -1 -2 0 -2 -1 -3 -1 -2 0 -2 -1 -2 57 -13 0 0 1 1 0 1 0 1 0 0 1 1 0 0 0 1 0 0 0 0 0 0 0 0 0 0 0 0 0 0 0 0 0 0 0 0 0 0 0 0 0 0 -1 0 0 0 0 0 0 0 0 0 0 0 1 0 0 0 0 0 1 0 1 0 -1 0zm1 59l0 0 0 0 0 0zm194 -2l-194 2 -1 -59 194 -2 1 59 0 0zm0 0l0 0 0 0 0 0zm26 -82l51 29 0 0 -1 2 -1 3 -2 2 -2 3 -1 2 -2 2 -2 3 -1 2 -2 2 -2 3 -2 2 -2 2 -3 2 -2 2 -2 2 -2 2 -3 1 -2 2 -3 2 -3 1 -2 2 -3 1 -3 2 -3 1 -3 1 -3 1 -3 1 -4 0 -3 1 -3 0 -4 1 -3 0 -1 -59 1 0 1 0 0 0 1 0 1 0 1 -1 0 0 1 0 1 0 1 -1 1 0 0 -1 1 0 1 -1 1 0 1 -1 1 -1 1 0 1 -1 0 -1 1 -1 1 -1 1 -1 1 -1 1 -1 1 -1 1 -2 1 -1 0 -1 1 -1 1 -2 1 -1 0 -1zm0 1l0 -1 0 0 0 1zm93 -45l-42 73 -51 -29 42 -73 1 -1 50 30zm-51 -29l0 0 1 -1 -1 1zm98 -51l0 59 0 0 -3 0 -3 0 -2 0 -3 1 -2 0 -2 0 -2 0 -2 1 -2 0 -1 1 -2 0 -2 0 -1 1 -1 0 -2 1 -1 1 -1 0 -1 1 -1 1 -1 0 -1 1 -1 1 -1 1 -1 1 -1 1 -1 1 -1 1 -1 1 -1 1 -1 2 -1 1 -1 2 -50 -31 2 -3 1 -3 2 -2 3 -3 2 -3 2 -2 2 -3 3 -2 2 -3 3 -2 3 -2 3 -2 2 -2 3 -2 4 -2 3 -2 3 -1 3 -2 3 -1 4 -1 3 -1 4 -1 3 -1 4 -1 3 0 4 -1 4 -1 3 0 4 0 4 0 4 0 4 -1 0 0zm0 0l0 0 0 0 0 0zm256 59l-256 0 0 -59 256 1 0 0 0 58zm0 -58l0 0 0 0 0 0zm119 91l-59 0 0 0 0 0 0 0 0 0 0 -1 0 -1 -1 -1 0 -1 -1 -1 -1 -2 -2 -1 -1 -2 -2 -1 -2 -2 -2 -1 -2 -2 -2 -2 -2 -1 -3 -2 -3 -1 -2 -2 -3 -1 -3 -1 -3 -1 -3 -2 -3 0 -3 -1 -3 -1 -2 -1 -3 0 -3 0 -3 -1 -3 0 1 -58 6 0 5 0 5 1 5 1 5 1 5 1 5 1 5 2 5 2 5 2 4 2 5 2 5 2 4 3 4 2 4 3 4 3 4 3 4 3 4 3 3 4 3 3 4 4 2 4 3 4 3 4 2 5 2 5 2 5 1 5 1 5 0 6 0 0zm-59 0l0 0 0 0 0 0zm0 190l0 -190 59 0 0 189 -59 1 0 0zm0 0l0 0 0 0 0 0zm-60 98l0 -58 1 0 3 0 4 0 3 -1 3 0 3 -1 3 0 3 -1 3 -1 3 -1 3 -1 2 -1 3 -2 2 -1 2 -2 3 -1 2 -2 2 -2 1 -1 2 -2 2 -2 1 -2 1 -1 1 -2 1 -2 1 -1 1 -2 0 -2 1 -1 0 -1 0 -2 0 -1 0 -1 59 -1 0 5 0 6 -1 5 -1 5 -2 5 -2 4 -2 5 -2 5 -2 4 -3 4 -3 4 -3 4 -3 4 -4 4 -4 4 -4 3 -4 3 -4 4 -5 2 -4 3 -5 3 -5 2 -5 2 -6 2 -5 2 -5 2 -6 1 -6 1 -6 1 -6 0 -6 0 -6 0 1 0zm0 -58l0 0 1 0 -1 0zm-658 0l658 0 0 58 -658 0 0 -58 0 0zm-51 126l-59 1 0 1 0 -6 0 -6 1 -6 0 -5 1 -6 1 -6 1 -5 1 -6 2 -5 2 -6 2 -5 2 -5 3 -5 3 -5 3 -5 3 -5 4 -4 4 -4 4 -5 4 -4 5 -3 4 -4 6 -3 5 -3 5 -2 6 -3 6 -2 6 -1 6 -2 7 -1 6 0 7 0 0 58 -4 0 -3 1 -3 0 -3 1 -2 0 -3 1 -2 1 -2 1 -2 1 -3 2 -2 1 -2 2 -1 2 -2 1 -2 2 -2 3 -1 2 -2 2 -1 3 -2 2 -1 3 -1 3 -1 3 -1 3 -1 3 -1 4 0 3 -1 3 0 4 0 3 0 4 0 4 0 0zm0 0l0 0 0 0 0 0z"/>
   </g>
   <g>
    <path class="fil0" d="M1519 511l-58 0 0 -2 0 -1 0 -2 0 -1 1 -2 0 -1 0 -1 1 -2 1 -1 0 -1 1 -2 1 -1 1 -1 0 -1 1 -1 1 -1 1 -1 1 -1 1 -1 2 -1 1 0 1 -1 1 -1 2 0 1 -1 1 0 2 -1 1 0 2 0 1 -1 1 0 2 0 2 0 1 0 1 1 2 0 1 0 2 1 1 0 1 1 2 0 1 1 1 1 1 0 2 1 1 1 1 1 1 1 1 1 1 1 0 1 1 1 1 1 1 2 0 1 1 1 1 2 0 1 0 1 1 2 0 1 0 2 0 1 0 2zm-58 285l0 -285 58 0 0 285 -58 0zm0 0l58 0 0 2 0 1 0 2 0 1 -1 1 0 2 0 1 -1 2 -1 1 0 1 -1 1 -1 2 -1 1 0 1 -1 1 -1 1 -1 1 -1 1 -1 1 -2 0 -1 1 -1 1 -1 1 -2 0 -1 1 -1 0 -2 1 -1 0 -2 0 -1 0 -1 0 -2 0 -2 0 -1 0 -1 0 -2 0 -1 0 -2 -1 -1 0 -1 -1 -2 0 -1 -1 -1 -1 -1 -1 -2 0 -1 -1 -1 -1 -1 -1 -1 -1 -1 -1 0 -1 -1 -1 -1 -2 -1 -1 0 -1 -1 -1 -1 -2 0 -1 0 -2 -1 -1 0 -1 0 -2 0 -1 0 -2z"/>
   </g>
   <g>
    <path class="fil0" d="M1223 979l-58 0 0 -1 0 -2 0 -1 0 -2 1 -1 0 -1 1 -2 0 -1 1 -1 0 -2 1 -1 1 -1 1 -1 0 -1 1 -1 1 -1 1 -1 1 -1 1 -1 2 -1 1 -1 1 0 1 -1 2 -1 1 0 1 -1 2 0 1 0 1 -1 2 0 1 0 2 0 1 0 2 0 1 0 2 1 1 0 1 0 2 1 1 0 1 1 2 1 1 0 1 1 1 1 1 1 1 1 1 1 1 1 1 1 1 1 1 1 1 1 0 1 1 2 1 1 0 1 1 2 0 1 0 1 0 2 1 1 0 2 0 1zm-58 44l0 -44 58 0 0 44 -58 0zm0 0l58 0 0 2 0 1 -1 1 0 2 0 1 0 2 -1 1 0 1 -1 2 -1 1 0 1 -1 1 -1 2 -1 1 -1 1 -1 1 -1 1 -1 1 -1 0 -1 1 -1 1 -1 1 -2 0 -1 1 -1 0 -2 1 -1 0 -1 1 -2 0 -1 0 -2 0 -1 0 -2 0 -1 0 -2 0 -1 0 -1 -1 -2 0 -1 -1 -1 0 -2 -1 -1 0 -1 -1 -1 -1 -2 -1 -1 0 -1 -1 -1 -1 -1 -1 -1 -1 0 -1 -1 -2 -1 -1 -1 -1 0 -1 -1 -2 0 -1 -1 -1 0 -2 -1 -1 0 -2 0 -1 0 -1 0 -2z"/>
   </g>
   <g>
    <path class="fil0" d="M1237 979l-58 0 0 -1 0 -2 0 -1 1 -2 0 -1 0 -1 1 -2 0 -1 1 -1 0 -2 1 -1 1 -1 1 -1 1 -1 1 -1 0 -1 1 -1 2 -1 1 -1 1 -1 1 -1 1 0 1 -1 2 -1 1 0 1 -1 2 0 1 0 2 -1 1 0 1 0 2 0 1 0 2 0 1 0 2 1 1 0 2 0 1 1 1 0 2 1 1 1 1 0 1 1 1 1 1 1 1 1 1 1 1 1 1 1 1 1 1 1 1 1 0 1 1 2 1 1 0 1 1 2 0 1 0 1 1 2 0 1 0 2 0 1zm-58 44l0 -44 58 0 0 44 -58 0zm0 0l58 0 0 2 0 1 0 1 -1 2 0 1 0 2 -1 1 0 1 -1 2 -1 1 0 1 -1 1 -1 2 -1 1 -1 1 -1 1 -1 1 -1 1 -1 0 -1 1 -1 1 -1 1 -1 0 -2 1 -1 0 -1 1 -2 0 -1 1 -2 0 -1 0 -2 0 -1 0 -2 0 -1 0 -1 0 -2 0 -1 -1 -2 0 -1 -1 -1 0 -2 -1 -1 0 -1 -1 -1 -1 -1 -1 -1 0 -2 -1 -1 -1 0 -1 -1 -1 -1 -1 -1 -2 -1 -1 -1 -1 0 -1 -1 -2 0 -1 -1 -1 0 -2 0 -1 -1 -2 0 -1 0 -1 0 -2z"/>
   </g>
   <g>
    <path class="fil0" d="M1252 979l-58 0 0 -1 0 -2 0 -1 1 -2 0 -1 0 -1 1 -2 0 -1 1 -1 0 -2 1 -1 1 -1 1 -1 1 -1 0 -1 1 -1 1 -1 1 -1 2 -1 1 -1 1 -1 1 0 1 -1 2 -1 1 0 1 -1 2 0 1 0 2 -1 1 0 1 0 2 0 1 0 2 0 1 0 2 1 1 0 2 0 1 1 1 0 1 1 2 1 1 0 1 1 1 1 1 1 1 1 1 1 1 1 1 1 1 1 1 1 1 1 0 1 1 2 1 1 0 1 1 2 0 1 0 1 1 2 0 1 0 2 0 1zm-58 44l0 -44 58 0 0 44 -58 0zm0 0l58 0 0 2 0 1 0 1 -1 2 0 1 0 2 -1 1 0 1 -1 2 -1 1 0 1 -1 1 -1 2 -1 1 -1 1 -1 1 -1 1 -1 1 -1 0 -1 1 -1 1 -1 1 -2 0 -1 1 -1 0 -1 1 -2 0 -1 1 -2 0 -1 0 -2 0 -1 0 -2 0 -1 0 -1 0 -2 0 -1 -1 -2 0 -1 -1 -1 0 -2 -1 -1 0 -1 -1 -1 -1 -1 -1 -2 0 -1 -1 -1 -1 -1 -1 0 -1 -1 -1 -1 -2 -1 -1 -1 -1 0 -1 -1 -2 0 -1 -1 -1 0 -2 0 -1 -1 -2 0 -1 0 -1 0 -2z"/>
   </g>
   <g>
    <path class="fil0" d="M685 1067l-30 0 0 -1 0 -1 1 0 0 -1 0 -1 0 -1 0 0 1 -1 0 -1 0 0 1 -1 0 0 0 -1 1 -1 0 0 1 -1 0 0 1 0 0 -1 1 0 0 -1 1 0 1 0 0 -1 1 0 1 0 0 0 1 -1 1 0 1 0 0 0 1 0 1 0 1 0 0 0 1 0 1 1 0 0 1 0 1 0 0 1 1 0 1 0 0 1 1 0 0 1 1 0 0 0 1 1 0 0 1 1 0 1 1 0 0 1 0 0 1 1 0 1 0 0 0 1 0 1 1 1 0 0 0 1 0 1zm-30 290l0 -290 30 0 0 290 -30 0zm0 0l30 0 0 1 0 1 0 1 -1 0 0 1 0 1 0 0 0 1 -1 1 0 0 0 1 -1 0 0 1 -1 1 0 0 -1 1 0 0 -1 1 0 0 -1 0 0 1 -1 0 -1 0 0 1 -1 0 -1 0 0 0 -1 1 -1 0 0 0 -1 0 -1 0 -1 0 0 0 -1 0 -1 0 -1 -1 0 0 -1 0 -1 0 0 -1 -1 0 -1 0 0 -1 -1 0 0 0 -1 -1 0 0 -1 -1 0 0 -1 -1 0 -1 0 0 -1 -1 0 0 0 -1 -1 -1 0 0 0 -1 0 -1 0 0 -1 -1 0 -1 0 -1z"/>
   </g>
  </g>
 </g>
</svg>
