<?xml version="1.0" encoding="UTF-8"?>
<!DOCTYPE svg PUBLIC "-//W3C//DTD SVG 1.1//EN" "http://www.w3.org/Graphics/SVG/1.1/DTD/svg11.dtd">
<!-- Creator: CorelDRAW Home & Student 2014 -->
<svg xmlns="http://www.w3.org/2000/svg" xml:space="preserve" width="25mm" height="25mm" version="1.1" style="shape-rendering:geometricPrecision; text-rendering:geometricPrecision; image-rendering:optimizeQuality; fill-rule:evenodd; clip-rule:evenodd"
viewBox="0 0 2500 2500"
 xmlns:xlink="http://www.w3.org/1999/xlink">
 <defs>
  <style type="text/css">
   <![CDATA[
    .str2 {stroke:white;stroke-width:7.62}
    .str0 {stroke:#EF7F1A;stroke-width:31.01;stroke-linecap:round}
    .str1 {stroke:#EF7F1A;stroke-width:62.01;stroke-linecap:round;stroke-linejoin:round}
    .fil0 {fill:none}
    .fil1 {fill:white}
   ]]>
  </style>
 </defs>
 <g id="Слой_x0020_1">
  <metadata id="CorelCorpID_0Corel-Layer"/>
  <g id="_212850584">
   <line class="fil0 str0" x1="1171" y1="1631" x2="2062" y2= "1851" />
   <line class="fil0 str0" x1="1458" y1="1628" x2="2055" y2= "1778" />
   <line class="fil0 str0" x1="2033" y1="1558" x2="1763" y2= "1626" />
   <line class="fil0 str0" x1="1149" y1="1851" x2="2062" y2= "1851" />
   <path class="fil1 str1" d="M1442 434l364 0c7,0 15,-16 12,-34l-12 -83c-1,-18 -5,-33 -12,-33l-341 0c-6,0 -9,15 -12,33l-11 83c-3,18 5,34 12,34l0 0z"/>
   <path class="fil1 str1" d="M1090 2094l1017 0c18,0 39,-16 33,-33l-33 -84c-5,-17 -15,-33 -34,-33l-951 0c-19,0 -26,16 -34,33l-32 84c-7,17 15,33 34,33l0 0z"/>
   <line class="fil0 str0" x1="1280" y1="531" x2="1931" y2= "531" />
   <line class="fil0 str0" x1="1763" y1="1631" x2="2047" y2= "1703" />
   <line class="fil0 str0" x1="2026" y1="1484" x2="1458" y2= "1628" />
   <line class="fil0 str0" x1="1193" y1="1411" x2="1466" y2= "1482" />
   <line class="fil0 str0" x1="1745" y1="1482" x2="1171" y2= "1631" />
   <line class="fil0 str0" x1="1200" y1="1338" x2="1745" y2= "1482" />
   <line class="fil0 str0" x1="1466" y1="1482" x2="1178" y2= "1558" />
   <line class="fil0 str0" x1="1207" y1="1263" x2="2026" y2= "1484" />
   <line class="fil0 str0" x1="1473" y1="1262" x2="2018" y2= "1411" />
   <line class="fil0 str0" x1="1996" y1="1191" x2="1738" y2= "1262" />
   <line class="fil0 str0" x1="1738" y1="1262" x2="2011" y2= "1338" />
   <line class="fil0 str0" x1="1989" y1="1118" x2="1473" y2= "1262" />
   <line class="fil0 str0" x1="1229" y1="1044" x2="1478" y2= "1115" />
   <line class="fil0 str0" x1="1731" y1="1115" x2="1207" y2= "1263" />
   <line class="fil0 str0" x1="1236" y1="972" x2="1731" y2= "1115" />
   <line class="fil0 str0" x1="1478" y1="1115" x2="1215" y2= "1191" />
   <line class="fil0 str0" x1="1383" y1="940" x2="1989" y2= "1118" />
   <line class="fil0 str0" x1="1967" y1="898" x2="1843" y2= "935" />
   <line class="fil0 str0" x1="1616" y1="934" x2="1982" y2= "1044" />
   <line class="fil0 str0" x1="1960" y1="824" x2="1606" y2= "931" />
   <line class="fil0 str0" x1="1843" y1="935" x2="1960" y2= "972" />
   <line class="fil0 str0" x1="1953" y1="751" x2="1368" y2= "935" />
   <line class="fil0 str0" x1="1266" y1="678" x2="1377" y2= "713" />
   <line class="fil0 str0" x1="1835" y1="712" x2="1244" y2= "898" />
   <line class="fil0 str0" x1="1273" y1="603" x2="1606" y2= "710" />
   <line class="fil0 str0" x1="1606" y1="710" x2="1251" y2= "824" />
   <line class="fil0 str0" x1="1280" y1="531" x2="1835" y2= "712" />
   <line class="fil0 str0" x1="1377" y1="713" x2="1258" y2= "751" />
   <line class="fil0 str0" x1="1497" y1="531" x2="1945" y2= "678" />
   <line class="fil0 str0" x1="1718" y1="531" x2="1938" y2= "603" />
   <line class="fil0 str0" x1="1164" y1="1703" x2="1763" y2= "1851" />
  </g>
  <path class="fil1 str2" d="M875 1015l635 0 0 112 -81 191 -1 654 82 176c10,21 0,46 0,68l-635 0 0 -1201z"/>
  <line class="fil0 str0" x1="443" y1="1308" x2="1356" y2= "1308" />
  <line class="fil0 str0" x1="443" y1="1498" x2="1356" y2= "1498" />
  <line class="fil0 str0" x1="443" y1="1594" x2="1356" y2= "1594" />
  <line class="fil0 str0" x1="443" y1="1689" x2="1356" y2= "1689" />
  <line class="fil0 str0" x1="443" y1="1782" x2="1356" y2= "1782" />
  <line class="fil0 str0" x1="443" y1="1878" x2="1356" y2= "1878" />
  <line class="fil0 str0" x1="443" y1="1973" x2="1356" y2= "1973" />
  <line class="fil0 str0" x1="443" y1="1403" x2="1356" y2= "1403" />
  <path class="fil1 str1" d="M394 1071l1017 0c18,0 39,17 33,34l-33 83c-5,19 -15,34 -34,34l-951 0c-19,0 -26,-15 -33,-34l-33 -83c-7,-17 15,-34 34,-34l0 0z"/>
  <path class="fil1 str1" d="M394 2216l1017 0c18,0 39,-16 33,-33l-33 -83c-5,-18 -15,-34 -34,-34l-951 0c-19,0 -26,16 -33,34l-33 83c-7,17 15,33 34,33l0 0z"/>
 </g>
</svg>
