<?xml version="1.0" encoding="UTF-8" standalone="no"?>
<svg version="1.1" width="14mm" height="14mm" viewBox="0 0 1400 1400" xmlns="http://www.w3.org/2000/svg" xmlns:svg="http://www.w3.org/2000/svg">
  <circle cx="700" cy="700" r="700" fill="#FEFEFE" />
  <path fill="#3163AD" d="M482.27 564.73c139,-197 570,-150 595,165 25,316 -184,422 -369,452 -184,30 -447,-61 -525,-302 12,0 8,0 45,0l0 11c0,22 18,41 40,41l0 0c22,0 40,-19 40,-41l0 -12c137,0 333,-2 390,-2 89,-1 136,-78 135,-160 0,-83 -57,-150 -141,-151 -84,0 -133,-2 -210,-1z" />
  <path fill="#21426B" d="M109.27 705.73c0,-324 264,-591 588,-591 324,0 588,264 588,588 0,324 -264,588 -588,588 -199,0 -375,-99 -481,-250 138,148 333,206 492,181 207,-33 444,-150 416,-498 -27,-340 -497,-397 -663,-197 -46,65 -56,117 -56,178l-115 0 -25 188 -31 -187 -125 0z" />
</svg>
