<?xml version="1.0" encoding="UTF-8"?>
<!DOCTYPE svg PUBLIC "-//W3C//DTD SVG 1.1//EN" "http://www.w3.org/Graphics/SVG/1.1/DTD/svg11.dtd">
<!-- Creator: CorelDRAW -->
<svg xmlns="http://www.w3.org/2000/svg" xml:space="preserve" width="12mm" height="12mm" version="1.1" style="shape-rendering:geometricPrecision; text-rendering:geometricPrecision; image-rendering:optimizeQuality; fill-rule:evenodd; clip-rule:evenodd"
viewBox="0 0 1200 1200"
 xmlns:xlink="http://www.w3.org/1999/xlink"
 xmlns:xodm="http://www.corel.com/coreldraw/odm/2003">
 <defs>
  <style type="text/css">
   <![CDATA[
    .fil1 {fill:#21426B;fill-rule:nonzero}
    .fil0 {fill:#3163AD;fill-rule:nonzero}
   ]]>
  </style>
 </defs>
 <g id="Layer_x0020_1">
  <metadata id="CorelCorpID_0Corel-Layer"/>
  <g id="_2785489489056">
   <path class="fil0" d="M383.87 463.13c139,-197 570,-150 595,165 25,316 -184,422 -369,452 -184,30 -447,-61 -525,-302 12,0 8,0 45,0l0 11c0,22 18,41 40,41l0 0c22,0 40,-19 40,-41l0 -12c137,0 333,-2 390,-2 89,-1 136,-78 135,-160 0,-83 -57,-150 -141,-151 -84,0 -133,-2 -210,-1z"/>
   <path class="fil1" d="M10.87 604.13c0,-324 264,-591 588,-591 324,0 588,264 588,588 0,324 -264,588 -588,588 -199,0 -375,-99 -481,-250 138,148 333,206 492,181 207,-33 444,-150 416,-498 -27,-340 -497,-397 -663,-197 -46,65 -56,117 -56,178l-115 0 -25 188 -31 -187 -125 0z"/>
  </g>
 </g>
</svg>
