<?xml version="1.0" encoding="UTF-8"?>
<!DOCTYPE svg PUBLIC "-//W3C//DTD SVG 1.1//EN" "http://www.w3.org/Graphics/SVG/1.1/DTD/svg11.dtd">
<svg xmlns="http://www.w3.org/2000/svg" xml:space="preserve" width="25mm" height="20mm" version="1.1" style="shape-rendering:geometricPrecision; text-rendering:geometricPrecision; image-rendering:optimizeQuality; fill-rule:evenodd; clip-rule:evenodd"
viewBox="0 0 2000 1600"
 xmlns:xlink="http://www.w3.org/1999/xlink">
 <defs>
  <style type="text/css">
   <![CDATA[
    .str3 {stroke:#EF7F1A;stroke-width:20}
    .str2 {stroke:#EF7F1A;stroke-width:25}
    .str4 {stroke:#EF7F1A;stroke-width:25;stroke-linecap:round}
    .str1 {stroke:#EF7F1A;stroke-width:60}
    .str0 {stroke:#EF7F1A;stroke-width:60;stroke-linecap:round}
    .fil0 {fill:none}
    .fil2 {fill:none;fill-rule:nonzero}
    .fil1 {fill:white}
   ]]>
  </style>
 </defs>
 <g id="Слой_x0020_1">
  <metadata id="CorelCorpID_0Corel-Layer"/>
  <line class="fil0 str0" x1="1838" y1="517" x2="1838" y2= "802" />
  <path class="fil1 str1" d="M1686 442c-361,-1 -722,-2 -1083,0 -24,0 -40,23 -41,49 -2,78 -5,157 -6,235 -1,44 3,100 22,132 6,9 18,27 32,27 65,-1 129,-2 194,-2 17,0 42,-20 52,-37 15,-24 29,-49 43,-74 12,-23 45,-35 71,-35 85,-1 171,-1 256,0 34,0 90,37 90,62 1,63 1,127 0,190 0,25 -61,69 -90,69 -219,0 -708,-2 -927,0 -28,0 -80,54 -80,98 0,34 -2,68 1,102 1,12 4,24 12,34 19,24 38,50 65,65 23,13 51,15 78,15 369,0 1007,0 1375,0 19,0 36,-25 36,-44 0,-70 2,-140 0,-211 0,-14 -5,-28 -8,-43 -7,-35 -22,-71 -22,-107 0,-151 1,-301 0,-452 0,-32 -41,-73 -70,-73z"/>
  <path class="fil2 str2" d="M1441 546l195 0c15,0 26,12 26,26l0 664c0,15 -11,26 -26,26l-195 0c-14,0 -26,-11 -26,-26l0 -664c0,-14 12,-26 26,-26z"/>
  <circle class="fil2 str2" cx="925" cy="640" r="20"/>
  <circle class="fil2 str2" cx="1141" cy="640" r="20"/>
  <circle class="fil2 str2" cx="1037" cy="640" r="20"/>
  <line class="fil0 str3" x1="721" y1="450" x2="721" y2= "735" />
  <line class="fil0 str4" x1="706" y1="980" x2="706" y2= "890" />
  <line class="fil0 str4" x1="722" y1="942" x2="722" y2= "885" />
  <line class="fil0 str4" x1="691" y1="942" x2="691" y2= "885" />
  <rect class="fil1 str3" x="402" y="1008" width="624" height="106" rx="29" ry="29"/>
 </g>
</svg>
