<?xml version="1.0" encoding="UTF-8"?>
<!DOCTYPE svg PUBLIC "-//W3C//DTD SVG 1.1//EN" "http://www.w3.org/Graphics/SVG/1.1/DTD/svg11.dtd">
<!-- Creator: CorelDRAW Home & Student 2014 -->
<svg xmlns="http://www.w3.org/2000/svg" xml:space="preserve" width="591px" height="591px" version="1.1" style="shape-rendering:geometricPrecision; text-rendering:geometricPrecision; image-rendering:optimizeQuality; fill-rule:evenodd; clip-rule:evenodd"
viewBox="0 0 591 591"
 xmlns:xlink="http://www.w3.org/1999/xlink"
 xmlns:dc="http://purl.org/dc/elements/1.1/"
 xmlns:cc="http://creativecommons.org/ns#"
 xmlns:rdf="http://www.w3.org/1999/02/22-rdf-syntax-ns#"
 xmlns:svg="http://www.w3.org/2000/svg"
 xmlns:sodipodi="http://sodipodi.sourceforge.net/DTD/sodipodi-0.dtd"
 xmlns:inkscape="http://www.inkscape.org/namespaces/inkscape"
 inkscape:version="0.48.2 r9819"
 sodipodi:docname="EAC_w-on-b.svg">
 <defs>
  <style type="text/css">
   <![CDATA[
    .str1 {stroke:black}
    .str0 {stroke:white;stroke-linejoin:round}
    .str2 {stroke:black;stroke-width:3.12757}
    .fil1 {fill:black}
    .fil2 {fill:white}
    .fil0 {fill:white;fill-rule:nonzero}
   ]]>
  </style>
 </defs>
 <g id="Слой_x0020_1">
  <metadata id="CorelCorpID_0Corel-Layer"/>
  <sodipodi:namedview pagecolor="#ffffff" bordercolor="#666666" borderopacity="1" objecttolerance="10" gridtolerance="10" guidetolerance="10" inkscape:pageopacity="0" inkscape:pageshadow="2" inkscape:window-width="1600" inkscape:window-height="1153" id="namedview4" showgrid="false" inkscape:zoom="5.0874317" inkscape:cx="100" inkscape:cy="91.5" inkscape:window-x="-4" inkscape:window-y="-4" inkscape:window-maximized="1" inkscape:current-layer="svg2">
   <inkscape:grid snapvisiblegridlinesonly="true" enabled="true" visible="true" empspacing="5" id="grid3803" type="xygrid"/>
  </sodipodi:namedview>
  <rect id="rect2987" class="fil0 str0" x="-21" y="8" width="629" height="582"/>
  <g id="layer1" sodipodi:insensitive="true" inkscape:label="Logo" inkscape:groupmode="layer">
   <polygon id="path2987" class="fil1 str1" points="139,50 14,50 14,535 139,535 139,472 77,472 77,316 139,316 139,269 77,269 77,113 139,113 " sodipodi:nodetypes="ccccccccccccc" inkscape:connector-curvature="0"/>
   <polygon id="path2989" class="fil1 str2" points="264,316 264,535 202,535 202,50 389,50 389,535 327,535 327,316 " sodipodi:nodetypes="ccccccccc" inkscape:connector-curvature="0"/>
   <polygon id="path2991" class="fil2 str2" points="264,269 327,269 327,97 264,97 " sodipodi:nodetypes="ccccc" inkscape:connector-curvature="0"/>
   <polygon id="path2993" class="fil1 str2" points="577,50 452,50 452,535 577,535 577,472 514,472 514,113 577,113 " sodipodi:nodetypes="ccccccccc" inkscape:connector-curvature="0"/>
  </g>
 </g>
</svg>
