<?xml version="1.0" encoding="UTF-8"?>
<!DOCTYPE svg PUBLIC "-//W3C//DTD SVG 1.1//EN" "http://www.w3.org/Graphics/SVG/1.1/DTD/svg11.dtd">
<!-- Creator: CorelDRAW Home & Student 2014 -->
<svg xmlns="http://www.w3.org/2000/svg" xml:space="preserve" width="472px" height="177px" version="1.1" style="shape-rendering:geometricPrecision; text-rendering:geometricPrecision; image-rendering:optimizeQuality; fill-rule:evenodd; clip-rule:evenodd"
viewBox="0 0 472 177"
 xmlns:xlink="http://www.w3.org/1999/xlink">
 <defs>
  <style type="text/css">
   <![CDATA[
    .fil0 {fill:#E40010;fill-rule:nonzero}
   ]]>
  </style>
 </defs>
 <g id="Слой_x0020_1">
  <metadata id="CorelCorpID_0Corel-Layer"/>
  <g id="_471384160">
   <path class="fil0" d="M273 112c0,17 0,38 0,55l-16 0c0,-20 0,-37 0,-55l16 0z"/>
   <path class="fil0" d="M415 125c0,1 1,2 1,5l-14 0c0,0 -1,-3 -3,-5 -5,-5 -13,-6 -20,-4 -7,1 -12,8 -13,14 -1,8 1,17 9,21 8,3 16,5 24,-1 3,-2 4,-5 5,-8l0 -1 -16 0 0 -8 29 0c0,11 0,20 0,29 0,0 -6,0 -10,0 0,-2 0,-5 0,-5l-1 -1c-9,9 -27,9 -38,4 -9,-4 -16,-13 -18,-23 0,-11 5,-21 15,-27 5,-2 11,-4 18,-4l5 0c11,0 21,5 27,14z"/>
   <path class="fil0" d="M344 167l-15 0c-10,-13 -21,-25 -31,-37l0 2 0 35 -15 0c0,-20 0,-36 0,-55l16 0c12,14 21,25 31,37 0,-12 0,-23 0,-37 5,0 10,0 14,0l0 55z"/>
   <path class="fil0" d="M249 112l-28 22 1 1c10,10 21,22 30,32l-19 0 -19 -22c-4,-6 -9,3 -12,5l0 17 -15 0c0,-20 0,-36 0,-55l15 0c0,7 0,15 0,24l1 -2 28 -22c6,0 13,0 18,0z"/>
   <path class="fil0" d="M107 112c5,13 10,26 16,39l17 -39 16 0c-8,18 -16,36 -24,55 -7,0 -11,0 -18,0 -7,-19 -16,-36 -23,-55l16 0z"/>
   <path class="fil0" d="M176 112c0,0 0,55 0,55l-16 0c0,0 0,-55 0,-55l16 0z"/>
  </g>
  <g id="_471385960">
   <path class="fil0" d="M182 29l-11 0 0 26c0,8 -3,11 -9,11 -2,0 -4,-1 -5,-2 -1,-1 -2,-4 -2,-8l0 -27 -11 0 0 28c0,6 1,11 4,14 3,2 7,4 12,4 4,0 9,-3 12,-6l0 5 10 0 0 -45z"/>
   <path class="fil0" d="M350 41c0,-3 -1,-6 -3,-8 -3,-3 -7,-5 -14,-5 -6,0 -17,1 -18,13l11 0c-1,-5 7,-5 7,-5 2,0 4,1 6,2 1,1 1,2 1,4 0,3 -1,4 -11,5 -8,1 -17,3 -17,14 0,4 1,7 3,9 3,3 7,5 12,5 7,0 10,-2 14,-5l0 4 10 0 0 -2c-1,-1 -1,-5 -1,-5l0 -26zm-28 20c0,-3 2,-6 7,-6 1,-1 3,-1 4,-1 2,0 5,-1 7,-2l0 6c0,6 -6,8 -10,8 -4,0 -7,-2 -8,-5z"/>
   <path class="fil0" d="M270 86l0 -57 -10 0 0 6c-3,-4 -7,-7 -12,-7 -13,0 -21,9 -21,24 0,7 3,14 7,18 3,3 7,5 12,5 6,0 10,-3 13,-7l0 18 11 0zm-21 -20c-3,0 -5,-1 -7,-3 -3,-2 -4,-7 -4,-12 0,-4 2,-9 4,-12 2,-1 4,-2 7,-2 6,0 10,4 10,11 1,1 1,5 1,6 -1,8 -4,12 -11,12z"/>
   <polygon class="fil0" points="90,74 102,74 102,47 126,47 126,74 138,74 138,14 126,14 126,37 102,37 102,14 90,14 "/>
   <path class="fil0" d="M206 66c-4,0 -8,-2 -9,-6l-11 0c1,12 12,15 20,15 8,0 11,-2 15,-6 2,-2 4,-5 4,-9 0,-9 -7,-11 -14,-13 0,0 -3,-1 -3,-1 -6,-1 -10,-2 -10,-5 0,-4 4,-5 7,-5 3,0 5,1 7,4l11 0c-1,-8 -9,-12 -18,-12 -8,0 -18,3 -18,13 0,9 6,12 14,13 1,1 2,1 3,1 6,1 10,2 10,6 0,4 -3,5 -8,5z"/>
   <polygon class="fil0" points="315,29 303,29 294,63 284,29 272,29 288,74 299,74 "/>
   <path class="fil0" d="M376 28c-3,0 -8,4 -9,9l0 -8 -11 0 0 45 11 0 0 -22c0,-4 0,-8 3,-11 1,-2 4,-4 7,-4 3,0 5,0 5,0l0 -9c0,0 -3,-1 -6,0z"/>
   <path class="fil0" d="M424 43c0,-4 -1,-8 -4,-11 -3,-3 -6,-4 -12,-4 -5,0 -9,3 -12,8l0 -7 -10 0 0 45 11 0 0 -27c0,-3 0,-6 2,-8 2,-2 5,-3 8,-3 5,1 6,3 7,10l0 28 10 0 0 -31z"/>
   <path class="fil0" d="M42 77c-9,0 -12,0 -16,-2 -1,0 -4,-1 -6,-4 -3,-6 -3,-17 -3,-22 0,-6 0,-15 3,-21 2,-3 5,-4 6,-4 4,-1 7,-1 16,-1 8,0 11,0 15,1 2,0 4,1 6,4 4,6 4,16 4,21 0,6 0,16 -4,22 -2,3 -4,4 -6,4 -4,2 -7,2 -15,2zm0 -24c7,0 7,0 7,2l0 15 10 0 0 -41 -10 0 0 12c0,3 0,3 -7,3 -7,0 -7,0 -7,-3l0 -12 -10 0 0 41 10 0 0 -15c0,-2 0,-2 7,-2zm0 34c7,0 20,1 28,-8 3,-4 4,-6 6,-12 1,-5 1,-8 2,-13 0,-5 0,-9 -1,-16 -2,-8 -3,-12 -6,-16 4,-2 5,-9 4,-14 0,0 -3,-2 -6,-3 -2,-1 -7,-2 -7,-2 0,4 1,10 -2,12 -3,1 -10,0 -11,-4 -1,-1 -1,-5 0,-10 -1,0 -4,0 -7,0 -4,0 -6,0 -7,0 0,5 0,9 0,10 -2,4 -9,5 -12,4 -3,-2 -2,-8 -2,-12 0,0 -4,1 -7,2 -3,1 -6,3 -6,3 -1,5 0,12 5,14 -4,4 -5,8 -7,16 -1,7 0,11 0,16 0,5 0,8 1,13 2,6 3,8 7,12 8,8 20,8 28,8z"/>
   <path class="fil0" d="M466 41c0,-3 -1,-6 -3,-8 -3,-3 -8,-5 -14,-5 -7,0 -18,1 -19,13l11 0c0,-5 7,-5 7,-5 2,0 5,1 7,2 1,1 1,2 1,4 0,3 -1,4 -11,5 -8,1 -17,3 -17,15 0,3 1,6 3,9 3,2 7,4 12,4 7,0 10,-2 14,-5l0 4 10 0 0 -2c-1,-1 -1,-5 -1,-5l0 -26zm-28 20c0,-3 2,-6 7,-6 1,-1 3,-1 4,-1 2,0 5,-1 7,-2l0 7c0,5 -6,7 -10,7 -4,0 -7,-1 -8,-5z"/>
  </g>
 </g>
</svg>
