<?xml version="1.0" encoding="UTF-8"?>
<!DOCTYPE svg PUBLIC "-//W3C//DTD SVG 1.1//EN" "http://www.w3.org/Graphics/SVG/1.1/DTD/svg11.dtd">
<!-- Creator: CorelDRAW Home & Student 2014 -->
<svg xmlns="http://www.w3.org/2000/svg" xml:space="preserve" width="709px" height="413px" version="1.1" style="shape-rendering:geometricPrecision; text-rendering:geometricPrecision; image-rendering:optimizeQuality; fill-rule:evenodd; clip-rule:evenodd"
viewBox="0 0 709 414"
 xmlns:xlink="http://www.w3.org/1999/xlink"
 xmlns:svg="http://www.w3.org/2000/svg">
 <defs>
  <style type="text/css">
   <![CDATA[
    .fil1 {fill:#B5192B}
    .fil0 {fill:#B5192B;fill-rule:nonzero}
   ]]>
  </style>
 </defs>
 <g id="Слой_x0020_1">
  <metadata id="CorelCorpID_0Corel-Layer"/>
  <g id="_223216568">
   <path class="fil0" d="M654 174c9,0 17,-7 17,-16 0,-9 -8,-17 -17,-17 -9,0 -16,8 -16,17 0,9 7,16 16,16zm0 -2c-8,0 -14,-6 -14,-14 0,-8 6,-14 14,-14 8,0 14,6 14,14 0,8 -6,14 -14,14zm-4 -13l4 0 6 8 3 0 -6 -8c3,-1 6,-2 6,-6 0,-3 -2,-5 -7,-5l-8 0 0 19 2 0 0 -8zm0 -3l0 -6 6 0c2,0 4,1 4,3 0,4 -4,3 -6,3l-4 0z"/>
   <path class="fil1" d="M405 295l-39 0 -9 -35 -44 0 -9 35 -38 0 49 -155 40 0 50 155zm-58 -70l-24 0 12 -43 12 43zm273 -85l0 35 -43 0 0 29 40 0 0 35 -40 0 0 56 -39 0 0 -155 82 0zm-112 0l0 35 -43 0 0 29 40 0 0 35 -40 0 0 56 -39 0 0 -155 82 0zm-253 0l0 35 -43 0 0 29 39 0 0 35 -39 0 0 56 -39 0 0 -155 82 0z"/>
   <path class="fil0" d="M96 216c-1,0 -3,0 -4,0l-16 0 1 -41 0 0 0 0 16 0c1,0 2,0 2,0 13,0 19,9 19,21 0,4 -2,7 -3,10 -1,0 -1,1 -1,1 0,0 -1,1 -1,1 -3,4 -7,7 -13,8zm-4 -76l-54 0 0 155 39 0 0 -44 15 0c80,0 81,-111 0,-111z"/>
   <path class="fil0" d="M323 225l12 -50 12 50 -24 0zm32 -85l-40 0 -49 155 38 0 9 -35 44 0 9 35 39 0 -50 -155z"/>
  </g>
 </g>
</svg>
