<?xml version="1.0" encoding="UTF-8"?>
<!DOCTYPE svg PUBLIC "-//W3C//DTD SVG 1.1//EN" "http://www.w3.org/Graphics/SVG/1.1/DTD/svg11.dtd">
<!-- Creator: CorelDRAW Home & Student 2014 -->
<svg xmlns="http://www.w3.org/2000/svg" xml:space="preserve" width="472px" height="118px" version="1.1" style="shape-rendering:geometricPrecision; text-rendering:geometricPrecision; image-rendering:optimizeQuality; fill-rule:evenodd; clip-rule:evenodd"
viewBox="0 0 472 118"
 xmlns:xlink="http://www.w3.org/1999/xlink">
 <defs>
  <style type="text/css">
   <![CDATA[
    .fil0 {fill:#DC0A3D}
   ]]>
  </style>
 </defs>
 <g id="Слой_x0020_1">
  <metadata id="CorelCorpID_0Corel-Layer"/>
  <path class="fil0" d="M366 24l0 17 -5 -5 -29 0 0 13 24 0 4 -4 0 19 -4 -4 -24 0 0 16 31 0 5 -4 0 16 -55 0 4 -5 0 -55 -4 -4 53 0zm-82 1l0 18c0,0 -10,-11 -28,-8 -10,1 -15,8 -16,19 -1,10 3,20 13,23 14,4 21,-2 22,-6l0 -12 -4 -4 21 0 -3 4 0 17c0,1 -1,2 -3,5 -2,2 -10,8 -24,8 -23,0 -35,-12 -36,-29 -1,-23 12,-36 31,-37 11,-1 19,2 24,4 3,-3 3,-2 3,-2zm-150 -1l20 0 30 40 0 -35 -4 -5 21 0 -4 5 0 55 4 4 -17 0 -34 -45 0 40 4 5 -23 0 6 -5 0 -54 -3 -5zm-50 0l5 5 0 54 -6 5 24 0 -4 -5 0 -54 4 -5 -23 0zm-72 5c-1,1 -9,7 -7,18 3,11 13,12 17,13 3,0 13,0 19,2 6,2 8,12 0,15 -8,3 -26,1 -35,-9l0 20 5 -3c1,1 4,3 15,4 11,2 28,-1 33,-11 5,-9 1,-20 -5,-24 -6,-4 -15,-4 -26,-5 -11,-1 -10,-12 -2,-14 3,-1 7,-1 12,0 6,0 13,2 19,5l0 -17 -5 3c-8,-3 -27,-6 -40,3zm447 3l0 -7 3 0c1,0 1,0 2,0 0,0 0,1 0,1 1,0 1,1 1,1 0,1 0,1 -1,1 0,1 -1,1 -1,1 0,0 0,0 0,0 1,1 1,1 1,1l1 2 -1 0 -1 -1c0,-1 0,-1 0,-1 -1,-1 -1,-1 -1,-1 0,0 0,0 0,0 0,0 -1,0 -1,0l-1 0 0 3 -1 0zm1 -4l2 0c0,0 1,0 1,0 0,0 0,0 1,0 0,0 0,-1 0,-1 0,0 0,-1 -1,-1 0,0 0,0 -1,0l-2 0 0 2zm2 -6c1,0 3,1 4,2 1,1 2,3 2,5 0,1 -1,3 -2,4 -1,1 -3,2 -4,2 -2,0 -4,-1 -5,-2 -1,-1 -2,-3 -2,-4 0,-2 1,-4 2,-5 1,-1 3,-2 5,-2zm0 1c-2,0 -3,1 -4,2 -1,1 -2,2 -2,4 0,1 1,2 2,3 1,1 2,2 4,2 1,0 3,-1 3,-2 1,-1 2,-2 2,-3 0,-2 -1,-3 -2,-4 0,-1 -2,-2 -3,-2zm-70 2l3 4 0 54 -3 5 22 0 -4 -5 0 -18 12 0 13 18 -3 5 27 0 -7 -5c-1,-2 -13,-18 -13,-18 8,-2 13,-9 13,-19 0,-10 -6,-21 -20,-21l-40 0zm18 12l0 16 21 0c9,0 10,-16 0,-16l-21 0z"/>
 </g>
</svg>
