<?xml version="1.0" encoding="UTF-8"?>
<!DOCTYPE svg PUBLIC "-//W3C//DTD SVG 1.1//EN" "http://www.w3.org/Graphics/SVG/1.1/DTD/svg11.dtd">
<!-- Creator: CorelDRAW Home & Student 2014 -->
<svg xmlns="http://www.w3.org/2000/svg" xml:space="preserve" width="100mm" height="20mm" version="1.1" style="shape-rendering:geometricPrecision; text-rendering:geometricPrecision; image-rendering:optimizeQuality; fill-rule:evenodd; clip-rule:evenodd" viewBox="0 0 10000 2000" xmlns:xlink="http://www.w3.org/1999/xlink">
 <defs>
  <style type="text/css">
   <![CDATA[
    .fil0 {fill:black}
   ]]>
  </style>
 </defs>
 <g id="Слой_x0020_1">
  <metadata id="CorelCorpID_0Corel-Layer"/>
  <g id="_215304216">
   <path class="fil0" d="M2746 1776l-141 0 0 -200 -436 0 0 200 -141 0 0 -329 63 0c22,-54 41,-113 54,-177 14,-66 24,-133 30,-202 8,-70 13,-141 14,-212 3,-72 4,-142 4,-210l0 -86 472 0 0 887 81 0 0 329zm684 -268c-32,25 -69,45 -111,60 -42,15 -88,22 -139,22 -105,0 -188,-40 -248,-121 -61,-82 -91,-201 -91,-359 0,-82 5,-157 16,-226 12,-68 30,-127 55,-177 25,-51 57,-91 96,-119 39,-28 86,-42 140,-42 41,0 80,8 114,26 35,16 65,43 89,80 24,38 43,87 57,148 13,59 20,131 20,217l0 87 -424 0c0,116 16,203 47,262 32,60 80,89 143,89 44,0 83,-7 117,-22 35,-16 62,-32 83,-46l36 121zm-1493 -948l0 1016 -155 0 0 -456 -234 0 0 456 -157 0 0 -1016 157 0 0 431 234 0 0 -431 155 0zm1810 510l0 506 -158 0 0 -1016 158 0 0 470 244 -470 159 0 -252 478 288 538 -171 0 -268 -506zm808 520c-109,0 -194,-43 -256,-129 -62,-87 -93,-218 -93,-393 0,-79 8,-151 23,-216 16,-64 39,-119 68,-163 31,-46 69,-81 113,-105 46,-26 98,-38 158,-38 45,0 82,5 110,16 29,9 54,21 77,36l-22 149c-22,-19 -47,-35 -77,-48 -28,-15 -58,-22 -91,-22 -56,0 -102,31 -139,94 -36,64 -54,160 -54,289 0,128 15,226 44,296 31,69 79,103 143,103 39,0 73,-6 101,-18 29,-13 52,-28 71,-44l36 117c-27,23 -57,41 -91,56 -33,14 -74,20 -121,20zm-2045 -903l-175 0 0 18c0,54 -2,113 -4,177 -2,64 -6,128 -12,194 -7,66 -17,131 -29,196 -12,63 -29,121 -50,175l270 0 0 -760zm638 -12c-49,0 -83,27 -103,82 -21,54 -33,127 -39,218l261 0c0,-43 -2,-83 -7,-119 -4,-38 -10,-70 -20,-97 -8,-27 -20,-47 -36,-62 -15,-15 -34,-22 -56,-22z"/>
   <path class="fil0" d="M5389 558c-11,-38 -20,-73 -28,-105 -7,-34 -14,-67 -21,-101l-6 0c4,68 6,140 6,214l0 1010 -88 0 0 -1442 117 0 244 922c5,19 11,45 16,78 7,33 11,62 14,89l6 0c4,-27 10,-56 16,-89 7,-33 13,-59 18,-78l246 -922 113 0 0 1442 -96 0 0 -1010c0,-35 0,-70 2,-105 1,-37 3,-73 6,-109l-8 0c-10,40 -19,76 -27,107 -6,31 -14,62 -22,93l-216 802 -78 0 -214 -796z"/>
   <path class="fil0" d="M6470 1520c47,0 86,-20 119,-59 33,-39 60,-86 78,-141l0 -280 -109 0c-84,0 -147,20 -187,60 -40,41 -61,105 -61,194 0,72 14,128 43,167 29,39 68,59 117,59zm226 56c-4,-13 -9,-30 -14,-50 -4,-22 -8,-51 -11,-87 -24,48 -54,87 -90,115 -37,28 -80,42 -131,42 -69,0 -125,-25 -168,-76 -43,-53 -64,-125 -64,-218 0,-109 29,-191 86,-246 58,-57 142,-85 252,-85l111 0 0 -127c0,-78 -14,-134 -42,-169 -28,-35 -71,-53 -127,-53 -43,0 -83,10 -121,30 -38,19 -69,46 -93,81l-26 -91c20,-27 50,-50 91,-70 41,-22 91,-33 149,-33 85,0 149,25 194,73 45,47 68,121 68,222l0 555c0,35 2,70 6,107 4,34 10,61 16,80l-86 0z"/>
   <path class="fil0" d="M7260 1520c64,0 116,-39 155,-115 39,-78 58,-198 58,-359 0,-135 -16,-239 -50,-313 -34,-74 -80,-111 -139,-111 -23,0 -45,6 -67,18 -20,11 -39,26 -58,45 -18,19 -34,41 -49,66 -14,24 -27,50 -38,77l0 569c20,41 45,72 75,92 29,21 67,31 113,31zm-6 74c-39,0 -75,-8 -107,-24 -31,-17 -56,-39 -75,-64l0 385 -95 0 0 -1331 83 0 8 167c23,-48 53,-91 91,-129 37,-39 84,-59 141,-59 42,0 79,13 113,37 33,24 62,58 85,103 22,43 40,95 52,157 12,60 18,128 18,202 0,187 -29,326 -87,419 -57,92 -133,137 -227,137z"/>
   <polygon class="fil0" points="7844,1576 7749,1576 7749,560 7844,560 7844,1038 8185,560 8278,560 7943,1032 8302,1576 8197,1576 7844,1050 "/>
   <path class="fil0" d="M8438 1084c2,140 22,247 58,321 36,72 92,109 166,109 33,0 63,-6 88,-16 26,-11 47,-24 65,-39 20,-15 38,-33 52,-54l31 76c-17,23 -36,43 -59,59 -20,15 -45,27 -75,38 -29,12 -64,18 -104,18 -108,0 -187,-46 -238,-139 -52,-93 -77,-222 -77,-389 0,-83 7,-157 22,-222 15,-66 35,-122 61,-167 27,-46 58,-80 94,-103 37,-24 76,-37 119,-37 45,0 84,12 119,35 35,23 64,57 87,103 23,45 39,102 49,171 9,67 10,146 2,236l-460 0zm203 -466c-53,0 -100,34 -139,101 -37,66 -58,163 -62,290l369 0c8,-135 -6,-234 -40,-296 -34,-63 -76,-95 -128,-95z"/>
   <polygon class="fil0" points="9315,638 9315,1576 9221,1576 9221,638 8985,638 8985,560 9549,560 9549,638 "/>
   <path class="fil0" d="M905 1024l-246 552 -180 0 271 -591c-64,-32 -115,-79 -154,-141 -39,-63 -58,-149 -58,-256 0,-75 11,-141 32,-198 23,-58 53,-105 91,-143 39,-38 84,-66 135,-85 51,-19 105,-28 161,-28l232 0 0 1442 -155 0 0 -552 -129 0zm129 -759l-83 0c-31,0 -61,6 -91,18 -29,11 -55,29 -78,55 -23,24 -42,57 -57,99 -13,40 -20,90 -20,151 0,58 6,106 18,145 14,39 31,71 53,95 23,24 49,42 78,52 31,10 64,14 97,14l83 0 0 -629z"/>
  </g>
 </g>
</svg>