<svg viewBox="0 0 27.5996 24" xmlns="http://www.w3.org/2000/svg" xmlns:xlink="http://www.w3.org/1999/xlink" width="27.599609" height="24.000000" fill="none" customFrame="#000000">
	<g id="sign_8_">
		<path id="dot" d="M24.2999 23.9996C26.1234 23.9996 27.6017 22.5215 27.6017 20.6981C27.6017 18.8747 26.1234 17.3965 24.2999 17.3965C22.4763 17.3965 20.998 18.8747 20.998 20.6981C20.998 22.5215 22.4763 23.9996 24.2999 23.9996Z" fill="rgb(236,0,68)" fill-rule="evenodd"/>
		<path id="sign_7_" d="M21.0301 3.18729C18.1262 1.17672 14.6 0 10.8029 0C7.00158 0 3.47962 1.17672 0.575704 3.18729C0.380981 3.32274 0.00423338 3.59787 0.00423338 3.59787L0.00423338 6.59893C1.40963 8.00421 4.94005 8.99892 6.00256 8.99892L6.00256 5.99787C7.46299 5.31639 9.08427 4.79999 10.8029 4.79999C12.5216 4.79999 14.1428 5.32062 15.6033 5.99787L0 13.1979C0 21.4518 10.7987 23.9957 10.7987 23.9957C10.7987 23.9957 21.5974 21.4476 21.5974 13.1979L21.5974 3.59787C21.6016 3.59787 21.2206 3.32274 21.0301 3.18729ZM10.8029 19.2C10.8029 19.2 6.00256 17.5576 6.00256 15.7206L6.00256 15.7121L15.6033 11.2889L15.6033 15.7248C15.599 17.5576 10.8029 19.2 10.8029 19.2Z" fill="rgb(184,169,153)" fill-rule="nonzero"/>
	</g>
</svg>