<?xml version="1.0" encoding="UTF-8"?>
<!DOCTYPE svg PUBLIC "-//W3C//DTD SVG 1.1//EN" "http://www.w3.org/Graphics/SVG/1.1/DTD/svg11.dtd">
<!-- Creator: CorelDRAW Home & Student 2014 -->
<svg xmlns="http://www.w3.org/2000/svg" xml:space="preserve" width="110mm" height="29mm" version="1.1" style="shape-rendering:geometricPrecision; text-rendering:geometricPrecision; image-rendering:optimizeQuality; fill-rule:evenodd; clip-rule:evenodd"
viewBox="0 0 11000 2900"
 xmlns:xlink="http://www.w3.org/1999/xlink">
 <defs>
  <style type="text/css">
   <![CDATA[
    .fil0 {fill:#B0AFAF}
    .fil1 {fill:#E31E24}
    .fil2 {fill:white}
   ]]>
  </style>
 </defs>
 <g id="Слой_x0020_1">
  <metadata id="CorelCorpID_0Corel-Layer"/>
  <g id="_301848232">
   <path class="fil0" d="M0 148l8466 510c38,1109 659,1821 1799,2180l-10265 -668 0 -2022z"/>
   <path class="fil1" d="M0 0l9151 0c38,1105 659,1763 1799,2021l-10950 0 0 -2021z"/>
   <path class="fil2" d="M6220 1562l0 -1043 788 0 0 229 -412 0 0 176 342 0 0 204 -342 0 0 208 449 0 0 226 -825 0zm-122 0l-332 0 -87 -550 -204 550 -217 0 -213 -535 -52 535 -273 0 154 -1036 305 0 219 553 232 -553 306 0 162 1036zm-1414 -518c0,73 -14,142 -42,206 -28,64 -68,122 -121,173 -54,50 -116,89 -185,116 -69,27 -141,41 -215,41 -76,0 -148,-14 -217,-41 -69,-27 -129,-66 -182,-116 -54,-51 -95,-109 -124,-174 -28,-64 -42,-133 -42,-205 0,-74 14,-142 42,-207 29,-64 70,-122 124,-172 53,-51 113,-89 182,-117 69,-27 141,-40 217,-40 75,0 147,13 216,40 70,28 131,66 184,117 52,50 93,107 121,172 28,65 42,133 42,207zm-565 -330l0 0c93,0 169,101 169,225l0 202c0,124 -76,226 -169,226l0 0c-94,0 -170,-102 -170,-226l0 -202c0,-124 76,-225 170,-225zm-1662 848l0 -1038 227 0 494 487 1 -487 275 0 0 1038 -200 0 -528 -522 -1 522 -268 0zm-1186 0l441 -1037 277 0 423 1037 -369 0 -59 -159 -365 0 -56 159 -292 0zm435 -361l200 0 -98 -294 -102 294zm-822 -679l375 -3 0 662c0,72 -5,127 -14,166 -9,39 -24,73 -46,103 -80,110 -216,122 -344,120 -175,-3 -292,-87 -371,-199l126 -104c70,114 231,118 259,36 10,-30 15,-103 15,-220l0 -561z"/>
  </g>
 </g>
</svg>
