<?xml version="1.0" encoding="UTF-8"?>
<!DOCTYPE svg PUBLIC "-//W3C//DTD SVG 1.1//EN" "http://www.w3.org/Graphics/SVG/1.1/DTD/svg11.dtd">
<svg xmlns="http://www.w3.org/2000/svg" xml:space="preserve" width="102mm" height="14mm" version="1.1" 
viewBox="0 0 10200 1400" xmlns:xlink="http://www.w3.org/1999/xlink">
 <defs>
  <style type="text/css">
   <![CDATA[
    .fil0 {fill:#21426B}
    .fil1 {fill:#3163AD}
   ]]>
  </style>
 </defs>
 <g id="Layer_x0020_1">
  <metadata id="CorelCorpID_0Corel-Layer"/>
  <g id="_159926584">
   <path class="fil0" d="M2609 989l-1037 0 0 -580 275 0 0 424 108 0 0 -424 273 0 0 424 108 0 0 -424 273 0 0 580zm738 -148c0,50 -16,88 -49,112 -33,24 -80,36 -141,36l-451 0 0 -580 442 0c51,0 93,12 126,37 33,25 49,63 49,113 0,75 -37,122 -111,141 43,5 76,20 100,45 24,26 35,57 35,96zm-327 2c35,0 53,-15 53,-44 0,-31 -17,-46 -52,-46l-65 0 0 90 64 0zm-64 -210l65 0c32,0 48,-13 48,-41 0,-26 -15,-39 -44,-39l-69 0 0 80zm851 -13c-2,-22 -9,-38 -21,-50 -12,-12 -27,-18 -46,-18 -15,0 -29,7 -42,19 -13,13 -21,29 -24,49l133 0zm247 195c-22,63 -62,111 -118,145 -57,34 -125,51 -205,51 -93,0 -173,-30 -240,-91 -67,-61 -100,-134 -100,-220 0,-87 33,-160 99,-221 66,-60 146,-91 241,-91 61,0 118,14 170,42 53,28 94,66 125,113 30,48 46,100 46,157l0 47 -401 0c0,28 7,52 20,70 13,18 30,27 49,27 23,0 42,-15 57,-47l257 18zm351 -406l0 298 109 -298 273 0 0 580 -273 0 0 -242 0 -64 -109 306 -274 0 0 -580 274 0zm53 -92c-55,0 -106,-15 -154,-44 -47,-30 -71,-76 -71,-139l150 0c0,53 25,79 76,79 50,0 75,-26 75,-79l150 0c0,64 -24,110 -71,139 -47,30 -99,44 -155,44zm664 672l-274 0 0 -580 274 0 0 209 108 0 0 -209 274 0 0 580 -274 0 0 -242 -108 0 0 242zm1408 0l-273 0 0 -580 273 0 0 580zm-537 0l-413 0 0 -580 276 0 0 223 116 0c77,0 136,15 178,45 43,30 64,72 64,125 0,60 -19,106 -58,138 -38,33 -93,49 -163,49zm-137 -146l69 0c33,0 49,-16 49,-49 0,-14 -5,-25 -14,-33 -8,-8 -20,-12 -33,-12l-71 0 0 94zm1019 -434l0 298 109 -298 273 0 0 580 -273 0 0 -242 0 -64 -109 306 -274 0 0 -580 274 0zm53 -92c-55,0 -106,-15 -154,-44 -47,-30 -71,-76 -71,-139l150 0c0,53 25,79 76,79 50,0 75,-26 75,-79l150 0c0,64 -24,110 -71,139 -47,30 -99,44 -155,44zm1303 672l-161 0 -112 -340 -35 340 -265 0 128 -580 261 0 104 316 103 -316 260 0 129 580 -266 0 -34 -340 -112 340zm842 -580l274 0 0 580 -274 0 0 -242 0 -64 -109 306 -273 0 0 -580 273 0 0 298 109 -298zm622 510l0 347 -277 0 0 -857 268 0 0 77c35,-37 64,-62 86,-75 22,-14 59,-20 112,-20 64,0 115,29 156,89 40,59 60,131 60,217 0,87 -20,161 -61,221 -41,60 -98,90 -173,90 -68,0 -125,-29 -171,-89zm62 -302c-20,0 -38,8 -52,25 -15,17 -22,38 -22,61 0,24 8,44 22,61 15,17 32,26 52,26 20,0 38,-8 52,-25 14,-17 22,-37 22,-62 0,-24 -7,-45 -21,-61 -13,-17 -31,-25 -53,-25z"/>
   <path class="fil1" d="M473 562c139,-197 570,-150 595,165 25,316 -184,422 -369,452 -184,30 -447,-61 -525,-302 12,0 8,0 45,0l0 11c0,22 18,41 40,41l0 0c22,0 40,-19 40,-41l0 -12c137,0 333,-2 390,-2 89,-1 136,-78 135,-160 0,-83 -57,-150 -141,-151 -84,0 -133,-2 -210,-1z"/>
   <path class="fil0" d="M100 703c0,-324 264,-591 588,-591 324,0 588,264 588,588 0,324 -264,588 -588,588 -199,0 -375,-99 -481,-250 138,148 333,206 492,181 207,-33 444,-150 416,-498 -27,-340 -497,-397 -663,-197 -46,65 -56,117 -56,178l-115 0 -25 188 -31 -187 -125 0z"/>
  </g>
 </g>
</svg>
