<?xml version="1.0" encoding="utf-8"?>
<!-- Generator: Adobe Illustrator 22.1.0, SVG Export Plug-In . SVG Version: 6.00 Build 0)  -->
<svg version="1.1" id="Слой_1" xmlns="http://www.w3.org/2000/svg" xmlns:xlink="http://www.w3.org/1999/xlink" x="0px" y="0px"
	 viewBox="0 0 182 60" style="enable-background:new 0 0 182 60;" xml:space="preserve">
<style type="text/css">
	.st0{display:none;}
	.st1{display:inline;}
	.st2{fill:#DA2128;}
	.st3{fill:#10A04E;}
	.st4{fill:none;stroke:#10A04E;stroke-width:0.636;stroke-linecap:round;stroke-linejoin:round;stroke-miterlimit:10;}
	.st5{fill:none;stroke:#10A04E;stroke-width:0.9784;stroke-linecap:round;stroke-linejoin:round;stroke-miterlimit:10;}
</style>
<title>Husqvarna_1</title>
<g id="Слой_1-2" class="st0">
	<g id="_559921144" class="st1">
		<path class="st2" d="M42.8,28.8h-2.6v6.3c0,1.8-0.7,2.6-2.1,2.6c-0.5,0-0.9-0.2-1.2-0.5c-0.4-0.5-0.6-1.2-0.6-1.9v-6.5h-2.6v6.8
			c-0.1,1.2,0.3,2.4,1.1,3.3c0.8,0.7,1.8,1.1,2.8,1c1-0.1,2-0.6,2.7-1.4v1.1h2.7L42.8,28.8L42.8,28.8z M32.1,25.2h-2.8v5.4h-5.8
			v-5.4h-2.9v14.3h2.9v-6.3h5.8v6.3h2.9L32.1,25.2L32.1,25.2z M48.2,28.5L48.2,28.5c-2.1,0-4.4,0.9-4.4,3.1s1.6,2.9,3.3,3.3l0.7,0.2
			c1.4,0.3,2.3,0.5,2.3,1.4c0,0.8-0.6,1.2-1.8,1.2s-2-0.5-2.1-1.4h-2.7l0,0l0,0c0.1,2.9,3,3.5,4.7,3.5c1.3,0.1,2.6-0.4,3.6-1.4
			c0.6-0.6,0.9-1.4,0.9-2.2c0-2.1-1.6-2.8-3.4-3.2L49,32.9c-1.4-0.3-2.5-0.5-2.4-1.3c0-0.6,0.6-0.9,1.6-0.9c0.7-0.1,1.3,0.2,1.6,0.9
			h2.8v-0.1C52.2,29.2,50.1,28.5,48.2,28.5L48.2,28.5z M74.3,28.8h-2.7c0,0-2.1,7.6-2.3,8l-2.3-8h-2.8h-0.1l3.7,10.7h2.8l3.7-10.7
			v-0.1L74.3,28.8z M89,28.4L89,28.4c-1,0.3-1.8,1-2.2,2v-1.7h-2.6v10.7H87v-5.1c-0.1-0.9,0.1-1.9,0.6-2.6c0.4-0.6,1.1-0.9,1.8-1
			c0.4,0,0.8,0.1,1.1,0.2h0.1v-2.4C90.1,28.4,89.5,28.3,89,28.4z M93.9,30.3v-1.5h-2.6v10.7H94v-6.3c-0.1-0.7,0.2-1.4,0.6-1.9
			c0.5-0.4,1.1-0.7,1.7-0.6c1.1,0,1.5,0.6,1.6,2.1v6.7h2.7v-7.3c0-1-0.3-2-1-2.7c-0.8-0.7-1.8-1.1-2.9-1
			C95.5,28.5,94.4,29.2,93.9,30.3L93.9,30.3z M78.8,28.5c-2.7,0-4.2,1.1-4.4,3.3v0.1h2.7v-0.1c0-0.3,0.1-0.6,0.3-0.8
			c0.4-0.3,0.9-0.4,1.3-0.4c0.5,0,1,0.1,1.4,0.5c0.2,0.2,0.4,0.5,0.4,0.9c0,0.6-0.1,1-2.6,1.2c-2,0.2-4.2,0.7-4.2,3.4
			c0,0.8,0.3,1.6,0.9,2.2c0.8,0.7,1.8,1.1,2.9,1c1.2,0.1,2.4-0.3,3.2-1.2c0,0.2,0.1,0.9,0.1,0.9h2.5l0,0v-0.3
			c-0.2-0.4-0.3-0.9-0.2-1.3v-6c0-0.8-0.3-1.5-0.8-2C81.3,28.9,80,28.4,78.8,28.5L78.8,28.5z M76.3,36.5v-0.2c0-0.7,0.5-1.2,1.5-1.4
			l0.6-0.1l0.4-0.1c0.5,0,1-0.2,1.5-0.5v1.5c0,0.4-0.2,0.8-0.5,1.1c-0.5,0.4-1.1,0.6-1.8,0.6C77,37.6,76.3,37.1,76.3,36.5z
			 M53.4,34.2c-0.1,1.6,0.5,3.2,1.6,4.4c0.8,0.8,1.8,1.3,3,1.2c1.2,0,2.4-0.6,3.1-1.5v4.1h2.7V28.8h-2.6V30c-0.6-1-1.7-1.5-2.9-1.5
			C55.3,28.5,53.4,30.7,53.4,34.2z M57.1,36.9L57.1,36.9c-0.7-0.8-1-1.8-0.9-2.8c0-1,0.3-2,1-2.8c0.4-0.5,1-0.7,1.5-0.7
			c1.4,0,2.2,0.9,2.5,2.7v1.4c-0.2,2-1,2.8-2.5,2.8C58,37.6,57.5,37.4,57.1,36.9z M7.5,22.2H7.4v0.1c0.1,0.8,0.1,1.5,0,2.3
			c-0.2,0.4-0.6,0.7-1,0.8c-0.5,0.2-1.1,0.2-1.6,0c-0.6-0.4-0.6-1.4-0.6-2.2v-0.5l0,0l-1.7,0.6l-1.4,0.6c0,0.3-0.1,0.6-0.1,0.9
			c-0.1,1,0.3,2,1.1,2.6C1.4,28,1.1,29,0.8,30.9c-0.2,0.9-0.3,1.8-0.3,2.6v1.2v0.5c0,0.9,0.2,1.8,0.4,2.7c0.3,1.1,0.9,2.1,1.7,3
			c1.8,1.9,4.7,1.8,6.4,1.8h0.6c1.8,0,4.7,0,6.4-1.8c0.8-0.8,1.3-1.9,1.5-3c0.2-0.8,0.4-1.6,0.4-2.4l0.1-0.9v-1.1
			c0-0.9-0.1-1.8-0.3-2.7c-0.4-1.9-0.7-2.8-1.4-3.7c0.8-0.6,1.3-1.6,1.2-2.6c0-0.3,0-0.5-0.1-0.8l-1.5-0.7l-1.7-0.5V23
			c0,0.9,0,1.9-0.5,2.3c-0.5,0.2-1.1,0.2-1.6,0c-0.4-0.1-0.8-0.4-0.9-0.8c-0.1-0.7-0.1-1.5,0-2.3v-0.1h-0.1C10.3,22.1,9.7,22,9.2,22
			C8.6,22,8.1,22.1,7.5,22.2z M5.5,39.9L5.5,39.9c-0.6-0.2-1.1-0.5-1.4-1c-0.8-1.4-0.8-4.1-0.8-5.3s0-3.5,0.9-4.9
			c0.3-0.5,0.7-0.9,1.3-1c1.2-0.3,2.5-0.4,3.7-0.3c1.2-0.1,2.5,0,3.7,0.2c0.6,0.2,1,0.5,1.3,1c0.9,1.4,0.9,3.8,0.9,5
			c0,1.2,0,3.7-0.9,5.2c-0.3,0.5-0.8,0.8-1.3,0.9c-1.2,0.3-2.5,0.4-3.7,0.3C8,40.2,6.7,40.1,5.5,39.9z M13.2,28.8h-2.4v3l-0.1,0.4
			c-0.1,0.2-0.5,0.2-1.6,0.2s-1.4,0-1.6-0.2c-0.2-0.2,0-0.2,0-0.4v-2.9H5.1v9.7h2.5V35v-0.4c0.5-0.1,1.1-0.2,1.6-0.1
			c1,0,1.4,0,1.6,0.1l0.1,0.4v3.5h2.5L13.2,28.8L13.2,28.8z M106.3,28.5L106.3,28.5c-2.8,0-4.2,1.1-4.5,3.3v0.1h2.7v-0.1
			c0-0.3,0.1-0.6,0.3-0.8c0.4-0.3,0.9-0.4,1.3-0.4c0.6,0,1.1,0.1,1.6,0.5c0.2,0.2,0.4,0.5,0.4,0.9c0,0.6-0.1,1-2.7,1.2
			c-1.9,0.2-4.2,0.8-4.2,3.4c0,0.8,0.3,1.6,0.9,2.2c0.8,0.7,1.8,1.1,2.8,1c1.2,0.1,2.4-0.3,3.2-1.2c0,0.2,0.1,0.9,0.1,0.9h2.5l0,0
			v-0.3c-0.2-0.4-0.3-0.9-0.2-1.3v-6c0-0.8-0.3-1.5-0.8-2.1C108.8,28.9,107.6,28.4,106.3,28.5L106.3,28.5z M104,36.5v-0.1
			c0-0.7,0.6-1.2,1.6-1.4l0.6-0.1h0.4c0.5-0.1,1-0.3,1.5-0.5v1.5c0,0.4-0.2,0.8-0.5,1.1c-0.5,0.4-1.1,0.6-1.8,0.6
			C104.7,37.6,104,37.2,104,36.5L104,36.5z"/>
		<path class="st2" d="M132.5,27h-3.7c0,0-3.6,8.8-3.7,8.8c0,0-3.5-8.7-3.5-8.7h-3.8l5.3,12.5h4l5.4-12.4L132.5,27L132.5,27z
			 M136.9,27h-3.6v12.6h3.7L136.9,27L136.9,27z M153.5,27h-4.4l-6.2,5v-5h-3.7v12.6h3.7v-4c0,0,1.8-1.3,2-1.5l4.8,5.5h4.6l-7-7.5
			c0.1-0.1,6.3-5,6.3-5H153.5z M158.5,27h-3.6v12.6h3.7L158.5,27L158.5,27z M174.5,27h-3.4v8.4c0-0.1-6.6-8.3-6.6-8.3h-3.7v12.5h3.5
			v-8.4c0,0.1,6.6,8.3,6.6,8.3h3.7L174.5,27L174.5,27z M175.7,33.3c0,3.8,3.3,6.5,8,6.5c1.6,0,3.2-0.6,4.4-1.6
			c0,0.2,0.3,1.3,0.3,1.3l2.3,0.1l0,0v-6.8h-6.9v2.2h3.5c-0.2,1.6-1.5,2.5-3.7,2.5c-3.2,0-4.3-2.1-4.3-4.1c-0.1-2.2,1.5-4,3.7-4.2
			c0.2,0,0.4,0,0.7,0c1.7,0,3,0.7,3.3,2h3.5v-0.1c-0.4-3-3.9-4.4-6.9-4.4C178.9,26.8,175.7,29.4,175.7,33.3L175.7,33.3z"/>
		<path class="st2" d="M196.4,27c1.8,0.1,3.1,1.5,3.1,3.3c-0.1,1.8-1.5,3.1-3.3,3.1c-1.7-0.1-3.1-1.5-3.1-3.2c0-1.8,1.4-3.2,3.1-3.2
			C196.3,27,196.4,27,196.4,27z M196.4,32.8c1.4,0,2.4-1.2,2.4-2.5c0,0,0,0,0,0c0.1-1.3-1-2.5-2.3-2.5c0,0-0.1,0-0.1,0
			c-1.4,0.2-2.4,1.4-2.2,2.8C194.4,31.7,195.3,32.6,196.4,32.8L196.4,32.8z M195.1,28.4h1.4c0.9,0,1.4,0.3,1.4,1.1
			c0,0.5-0.3,0.9-0.8,0.9c0,0-0.1,0-0.1,0l0.9,1.6h-0.7l-0.9-1.6h-0.5V32h-0.7L195.1,28.4z M195.8,29.9h0.7c0.4,0,0.7-0.1,0.7-0.5
			c0-0.4-0.4-0.4-0.7-0.4h-0.6L195.8,29.9z"/>
	</g>
</g>
<g id="rZufYm_1_" class="st0">
	
		<image style="display:inline;overflow:visible;" width="341" height="119" xlink:href="43BC2C6EF238BC13.png"  transform="matrix(1 0 0 1 -83 -141.695)">
	</image>
</g>
<g>
	<path class="st3" d="M13.6,23.5H1v17.2l12.8,0c0,0,7.8,0.1,7.8-8.8S13.6,23.5,13.6,23.5z M14.6,34.3c0,0-0.4,2.2-2.4,2.2
		s-4.2,0-4.2,0V28h4c0,0,2.5,0.2,2.6,2.2C14.7,32.2,14.6,34.3,14.6,34.3z"/>
	<path class="st3" d="M34.7,23.1c0,0-11.3,0.1-11.3,9.1c0,9.1,11.3,8.6,11.3,8.6s10.9,0.8,10.9-8.6C45.6,22.9,34.7,23.1,34.7,23.1z
		 M38.3,34.6c0,0,0.2,2.5-3.8,2.5c-3.8,0-3.8-2.5-3.8-2.5v-4.2c0,0,0-2.9,3.8-2.9c0,0,3.3-0.5,3.8,2.6
		C38.7,32.5,38.3,34.6,38.3,34.6z"/>
	<path class="st3" d="M67.9,39.2c0,0,0-1.8,0-3.6c0-1.9-2.6-2.8-2.6-2.8s2.6-0.6,2.6-4.9s-6.5-4.4-6.5-4.4H48.8v17.2h6.7v-6
		c0,0,1.8,0,3.7,0c1.9,0,2,2.3,2,2.3v3.7h7.6v-0.6C68.1,40.1,67.9,39.2,67.9,39.2z M59.8,31.2h-4.3v-3.4h4.3c0,0,1.9,0.3,1.9,1.7
		C61.6,30.8,59.8,31.2,59.8,31.2z"/>
	<polygon class="st3" points="107.7,23.5 127,23.5 127,28.5 121.1,28.5 121.1,40.8 113.6,40.8 113.6,28.6 107.7,28.6 	"/>
	<path class="st3" d="M142.9,23.5h-7.3l-7.6,17.2h7.1l1-2.2h6.3l0.9,2.2h7.3L142.9,23.5z M137.3,34.8l2.1-4.9l1.9,4.9H137.3z"/>
	<polygon class="st3" points="152.8,23.5 159.9,23.5 159.9,29.2 165.8,23.5 173.8,23.5 166.7,30.6 175.2,40.8 166.4,40.8 
		161.5,34.3 160.1,35.4 160.1,40.8 152.8,40.8 	"/>
	<path class="st3" d="M177.2,21.2c0,0-3.6-0.3-3.6,4c0,3.7,3.6,3.6,3.6,3.6s3.8,0,3.8-3.8C181,20.7,177.2,21.2,177.2,21.2z
		 M177.2,28.1c0,0-2.9,0-2.9-2.9c0-3.4,2.9-3.2,2.9-3.2s3-0.4,3,3.1C180.3,28.1,177.2,28.1,177.2,28.1z"/>
	<path class="st4" d="M176.1,26.9v-3.3c0-0.4,0.3-0.7,0.7-0.7h0.9c0.1,0,0.2,0,0.4,0.1c0.3,0.2,0.8,0.6,0.8,1.2
		c0,0.8-0.9,1.2-0.9,1.2l-1.4,0l2.6,1.6"/>
	<path class="st5" d="M101.8,46l-19.6,5.2l24.5-12.7l-31.3,9.5l31.3-16.3L70.9,41.9L104.1,26l-31.4,8.6l26.8-13.9l-23,6.2L96,16.6
		l-16.1,2.5l11.4-6.1 M91.1,15.8L79.5,22l16.2-2.6L76.3,29.7l22.9-6.2L72.4,37.6l31.2-8.8L70.9,44.7l35.9-10.2L75.2,50.9l31.1-9.8
		L81.9,54l19.3-5.1"/>
</g>
</svg>
