<?xml version="1.0" encoding="UTF-8"?>
<!DOCTYPE svg PUBLIC "-//W3C//DTD SVG 1.1//EN" "http://www.w3.org/Graphics/SVG/1.1/DTD/svg11.dtd">
<svg width="75" height="75" viewBox="0 0 1600 1600" 
version="1.1" xmlns:xlink="http://www.w3.org/1999/xlink" xmlns="http://www.w3.org/2000/svg" xml:space="preserve">
 <defs>
  <style type="text/css">
   <![CDATA[
    .str0 {stroke:#EF7F1A;stroke-width:25;stroke-linecap:round}
    .str2 {stroke:#EF7F1A;stroke-width:25;stroke-linecap:round;stroke-linejoin:round}
    .str3 {stroke:#EF7F1A;stroke-width:50;stroke-linecap:round}
    .str1 {stroke:#EF7F1A;stroke-width:50;stroke-linecap:round;stroke-linejoin:round}
    .fil0 {fill:none}
    .fil2 {fill:#EF7F1A}
    .fil1 {fill:white}
   ]]>
  </style>
 </defs>
 <g id="Слой_x0020_1">
  <metadata id="CorelCorpID_0Corel-Layer"/>
  <g id="_324820856">
   <line class="fil0 str0" x1="485" y1="644" x2="1221" y2= "644" />
   <line class="fil0 str0" x1="485" y1="702" x2="1221" y2= "702" />
   <line class="fil0 str0" x1="485" y1="762" x2="1221" y2= "762" />
   <line class="fil0 str0" x1="485" y1="880" x2="1221" y2= "880" />
   <line class="fil0 str0" x1="485" y1="940" x2="1221" y2= "940" />
   <line class="fil0 str0" x1="485" y1="999" x2="1221" y2= "999" />
   <line class="fil0 str0" x1="485" y1="1057" x2="1221" y2= "1057" />
   <line class="fil0 str0" x1="485" y1="1117" x2="1221" y2= "1117" />
   <line class="fil0 str0" x1="485" y1="1176" x2="1221" y2= "1176" />
   <line class="fil0 str0" x1="485" y1="821" x2="1221" y2= "821" />
   <path class="fil1 str1" d="M437 449l820 0c15,0 32,13 27,27l-27 67c-4,15 -12,27 -27,27l-767 0c-15,0 -21,-12 -27,-27l-26 -67c-6,-14 12,-27 27,-27z"/>
   <path class="fil1 str1" d="M437 1372l820 0c15,0 32,-13 27,-27l-27 -67c-4,-14 -12,-27 -27,-27l-767 0c-15,0 -21,13 -27,27l-26 67c-6,14 12,27 27,27z"/>
   <path class="fil1" d="M586 356l112 -43c15,-5 30,0 37,15l416 991c6,14 -22,145 -33,144 -22,-5 -123,-65 -129,-79l-417 -991c-6,-15 0,-31 14,-37z"/>
   <path class="fil1 str2" d="M628 369l50 -19c14,-5 28,1 35,14l399 942c5,12 1,115 -10,113 -22,-4 -83,-60 -89,-75l-398 -942c-7,-12 0,-28 13,-33z"/>
   <path class="fil1" d="M349 901l286 0c27,0 64,22 68,47l54 376 18 13c32,20 29,84 -59,84l-430 0c-25,0 -52,-22 -47,-48l61 -425c4,-25 22,-47 49,-47z"/>
   <path class="fil1 str1" d="M368 951l245 0c22,0 36,18 40,39l49 342c2,21 -18,39 -40,39l-344 0c-21,0 -41,-18 -38,-39l49 -342c4,-21 19,-39 39,-39z"/>
   <line class="fil0 str0" x1="708" y1="489" x2="758" y2= "607" />
   <line class="fil0 str3" x1="245" y1="1372" x2="736" y2= "1372" />
   <circle class="fil2" cx="405" cy="1045" r="29"/>
   <circle class="fil2" cx="578" cy="1045" r="29"/>
   <circle class="fil2" cx="493" cy="1045" r="29"/>
   <circle class="fil2" cx="405" cy="1127" r="29"/>
   <circle class="fil2" cx="578" cy="1127" r="29"/>
   <circle class="fil2" cx="493" cy="1127" r="29"/>
  </g>
 </g>
</svg>
