<?xml version="1.0" encoding="UTF-8"?>
<!DOCTYPE svg PUBLIC "-//W3C//DTD SVG 1.1//EN" "http://www.w3.org/Graphics/SVG/1.1/DTD/svg11.dtd">
<svg xmlns="http://www.w3.org/2000/svg" xml:space="preserve" width="25mm" height="20mm" version="1.1" style="shape-rendering:geometricPrecision; text-rendering:geometricPrecision; image-rendering:optimizeQuality; fill-rule:evenodd; clip-rule:evenodd"
viewBox="0 0 2000 1600"
 xmlns:xlink="http://www.w3.org/1999/xlink">
 <defs>
  <style type="text/css">
   <![CDATA[
    .str1 {stroke:#EF7F1A;stroke-width:25}
    .str0 {stroke:#EF7F1A;stroke-width:60}
    .str2 {stroke:#EF7F1A;stroke-width:60;stroke-linecap:round;stroke-linejoin:round}
    .fil0 {fill:none}
    .fil1 {fill:white}
   ]]>
  </style>
 </defs>
 <g id="Слой_x0020_1">
  <metadata id="CorelCorpID_0Corel-Layer"/>
  <g id="_431713856">
   <path class="fil0 str0" d="M1384 654l211 3c146,3 265,119 265,265 0,146 -119,264 -265,264"/>
   <path class="fil0 str1" d="M1445 729l149 2c102,2 185,83 185,186 0,102 -83,185 -185,185"/>
   <path class="fil1 str2" d="M1600 995l-1189 0c-40,0 -73,27 -73,59l0 260c0,32 33,58 73,58l1189 0c40,0 73,-26 73,-58l0 -260c0,-32 -33,-59 -73,-59z"/>
   <path class="fil1 str2" d="M1279 639l-354 0c-299,0 -400,149 -438,258l1047 0 -2 -209c0,-1 0,-1 0,-2l-3 -134c-16,-64 -128,-166 -191,-166l-503 -14c-60,-3 -60,100 0,99l389 23c34,2 53,38 55,69l0 76z"/>
   <line class="fil0 str1" x1="1262" y1="641" x2="1524" y2= "641" />
   <circle class="fil0 str1" cx="621" cy="1181" r="84"/>
   <circle class="fil0 str1" cx="964" cy="1181" r="84"/>
   <rect class="fil0 str1" x="1474" y="1086" width="73" height="88" rx="15" ry="15"/>
   <rect class="fil0 str1" x="914" y="561" width="275" height="71.5" rx="20" ry="20"/>
  </g>
 </g>
</svg>
